<svg xmlns="http://www.w3.org/2000/svg" viewBox="0 0 294.66 377.38"><defs><style>.cls-1{fill:#fff;}</style></defs><g id="Layer_2" data-name="Layer 2"><g id="Layer_1-2" data-name="Layer 1"><g id="Layer_2-2" data-name="Layer 2"><g id="objects"><path class="cls-1" d="M30.77,216.61c-2.07-3.3-2.6-7.4-2.46-11.21a45.31,45.31,0,0,1,2.2-12.21,46.8,46.8,0,0,1,13.83-20.81c.87-.76-.39-2-1.26-1.27a47.49,47.49,0,0,0-16.62,36.66,19.88,19.88,0,0,0,2.73,9.76c.63,1,2.21.08,1.58-.92Z"/><path class="cls-1" d="M47.83,168.33c-5.57,7.72-8.33,17.06-9.33,26.43-.12,1.06,1.54,1,1.65,0,1-9.14,3.75-18,9-25.62.6-.85-.78-1.63-1.37-.81Z"/><path class="cls-1" d="M43.76,170.69c-3,5.14-3.43,11.48-2.73,17.26a34.46,34.46,0,0,0,6.27,16.6c.66.88,2.15,0,1.49-.86A32.89,32.89,0,0,1,42.71,188c-.68-5.53-.29-11.49,2.44-16.46a.8.8,0,0,0-.3-1.1A.79.79,0,0,0,43.76,170.69Z"/><path class="cls-1" d="M64,221.9a63.1,63.1,0,0,0-2.33-7c-.86-2.31-1.81-4.58-2.82-6.83-.45-1-1.95-.13-1.49.88q1.5,3.27,2.76,6.65c.84,2.25,1.54,4.52,2.36,6.76a.79.79,0,0,0,1.52-.42Z"/><path class="cls-1" d="M35.77,162.93c-1.46,1.84-.52,4.92.33,6.86a5.18,5.18,0,0,0,2.66,2.84,5.67,5.67,0,0,0,3.81-.15A24.45,24.45,0,0,0,50,168.72,11.05,11.05,0,0,0,52.5,166c.38-.6.64-1.25,1-1.85a10.7,10.7,0,0,1,1.34-1.66c1.84-2.09,3.6-6.23,1.65-8.79a.82.82,0,1,0-1.42.83,5.58,5.58,0,0,1-.09,4.39,14.54,14.54,0,0,1-2.46,3.55c-.88,1.14-1.31,2.54-2.27,3.63a11.89,11.89,0,0,1-3,2.38,39.49,39.49,0,0,1-3.82,1.85c-1.16.52-2.91,1.27-4.17.68s-1.8-2.16-2.16-3.45c-.31-1.1-.8-2.64-.07-3.66.53-.74-.69-1.7-1.26-1Z"/><path class="cls-1" d="M37,169.39a72.1,72.1,0,0,0,11.77-4.46c3.41-1.8,6.87-4.56,8.34-8.25.35-.88-1-1.36-1.48-.62a21.37,21.37,0,0,1-3.42,4.44,21.09,21.09,0,0,1-4.67,3.16,81.64,81.64,0,0,1-11,4.19c-1,.33-.57,1.85.42,1.54Z"/><path class="cls-1" d="M44.07,154.58a58.47,58.47,0,0,1-6.5,1.55c-1.36.3-3.06.78-3.5,2.29a5.63,5.63,0,0,0,.94,4.43c1.13,1.46,3,1.43,4.69,1.06a28.93,28.93,0,0,0,10.41-5c.87-.62,1.71-1.28,2.63-1.83.67-.4,1.36-.77,2-1.23A4.38,4.38,0,0,0,56.66,152c-.07-1.5-.56-3.73-2.48-3.63a4.27,4.27,0,0,0-2.67,1.4A19.31,19.31,0,0,1,48.75,152c-.89.59,0,2,.84,1.44A40.05,40.05,0,0,0,53,150.57c.48-.41,1.36-1,1.7-.22a5.1,5.1,0,0,1,.3,2c0,1.28-.95,2-2,2.62s-2.31,1.46-3.44,2.27c-2.61,1.87-5.43,3.88-8.6,4.67-1.16.29-2.54.85-3.73.53s-1.7-2-1.58-3.18c.13-1.33,2.42-1.45,3.4-1.64a36.9,36.9,0,0,0,5.46-1.35c1-.36.58-2-.44-1.62Z"/><path class="cls-1" d="M30,218.33c2.81,1.86,6.73,2.81,10,1.42s4.11-5.36,3.34-8.52c-.53-2.2-1.26-4.32-1.7-6.55a70.61,70.61,0,0,1-1-7,107.48,107.48,0,0,1-.94-12.55c0-4.56.76-9.12,3.36-13,.66-1-.9-1.86-1.55-.91-4.09,6-3.88,13.63-3.25,20.59.36,4.05.75,8.12,1.47,12.13a50.15,50.15,0,0,0,1.47,6.16c.57,1.87,1,3.71.26,5.61-1.63,4.28-7.54,3-10.47,1-1-.62-1.84.91-.9,1.53Z"/><path class="cls-1" d="M35.4,167.88c-.79,4.31-3.4,7.84-6,11.25A49.24,49.24,0,0,0,22.64,190,40.22,40.22,0,0,0,20.54,215a.89.89,0,0,0,1.12.6l.18-.07a7.66,7.66,0,0,1,6.37-.21c1,.53,1.92-1,.9-1.54a9.44,9.44,0,0,0-8.17.22l1.3.53a38.46,38.46,0,0,1,2.63-25.26c1.81-3.8,4.36-7,6.86-10.38s4.71-6.7,5.22-10.76C37.06,167.21,35.56,167,35.4,167.88Z"/><path class="cls-1" d="M52.18,163c0,8.27,3.82,15.78,7.28,23.08,3.63,7.67,7.22,16.24,5.19,24.87l1.81.24c.41-3.18-3.13-5.18-5.93-4.86a8.25,8.25,0,0,0-4.65,2.53A25.7,25.7,0,0,0,54,211c-.6.72-1.27,1.83-2.15,2.24s-1.09.11-1.49-.59a7.86,7.86,0,0,1-.67-1.72,13.49,13.49,0,0,1-.49-3.45,38.62,38.62,0,0,1,.61-6.79,115.66,115.66,0,0,0,1.3-14.86,84.51,84.51,0,0,0-1.5-17.1c-.23-1.16-2-.67-1.78.49a91.14,91.14,0,0,1,.27,30.56c-.6,4.13-1.4,8.59.16,12.62.57,1.47,1.49,3.16,3.35,2.85s2.95-2.1,4-3.4c1.34-1.59,3.09-3.61,5.32-3.73,1.79-.1,3.93,1.07,3.67,3.07-.14,1,1.57,1.24,1.81.24C70.56,193.85,54.24,180,53.7,163a.78.78,0,0,0-1.56,0Z"/><path class="cls-1" d="M53.13,163H53l.78.59v.33l-.92.38a11.59,11.59,0,0,1,1.2,2.08l1.37,2.32,2.88,4.85c1.87,3.16,3.77,6.31,5.65,9.47a31.78,31.78,0,0,1,4.15,9.71,46.92,46.92,0,0,1,.73,10.65l1.58-.65c-1.53-1.25-4.14-2.23-5,.26-.35,1,1.23,1.64,1.65.7s1.56-.08,2.09.35a.95.95,0,0,0,1.58-.66,48.14,48.14,0,0,0-.81-11.11,33.45,33.45,0,0,0-4.36-10.14q-3.09-5.16-6.19-10.28-1.53-2.52-3-5l-1.53-2.51c-.41-.68-.68-1.31-1.47-1.53a.84.84,0,0,0-.92.37.88.88,0,0,0-.11.92.81.81,0,0,0,.77.6h.12c1-.07,1.05-1.64,0-1.61Z"/><path class="cls-1" d="M35.82,357.33a29.93,29.93,0,0,0-8.63,2.29c-2.88,1.26-5.38,3.18-8.21,4.53-5.61,2.68-12,3.1-18.1,3l.62,1.51c3.8-3,7.78-5.82,11.17-9.3a62,62,0,0,0,8.73-12,117.91,117.91,0,0,0,12-28.84c2.81-10.43,3.66-21,3.92-31.76a305.82,305.82,0,0,0-1-33.3q-.81-9.27-2.21-18.48c-.92-6-2.33-11.91-3.25-17.91-.18-1.16-1.93-.66-1.76.49.8,5.19,2,10.31,2.87,15.5q1.32,8.13,2.15,16.32a297.23,297.23,0,0,1,1.46,32.55c-.1,10.71-.5,21.41-2.88,31.89a118.18,118.18,0,0,1-10.85,29.11,69.9,69.9,0,0,1-9.57,14.32c-3.56,3.9-7.91,6.95-12,10.22C-.35,368,.2,369,.9,369c5.9.07,12-.34,17.49-2.62,2.86-1.19,5.32-3,8.05-4.46a28,28,0,0,1,9.4-2.91c1-.12,1-1.74,0-1.62Z"/><path class="cls-1" d="M54.29,212.72c4,4.4,8.15,8.84,10.91,14.18a41.36,41.36,0,0,1,4.24,16.43c.67,11.15-2,22.15-5.51,32.65a95.21,95.21,0,0,0-4.37,16.7c-.16,1.06,1.45,1.56,1.66.45a115.06,115.06,0,0,1,4.11-15.7,130.5,130.5,0,0,0,4.38-15.64c2.25-11.19,2.66-23.29-2.07-33.91-2.81-6.3-7.51-11.39-12.13-16.4-.76-.83-2,.4-1.22,1.22Z"/><path class="cls-1" d="M39.58,218.25c2.88,15.66,9,30.39,13.8,45.51S61.69,295.17,58.5,311a83.6,83.6,0,0,1-7.68,21,175.29,175.29,0,0,1-10.65,18.46c-3,4.42-6.73,8.8-8.07,14.09a10,10,0,0,0,.56,7,10.89,10.89,0,0,0,6.46,5.34A11.67,11.67,0,0,0,48,376c2.85-1.46,5.16-3.74,7.77-5.56A13.12,13.12,0,0,1,63,368a35.22,35.22,0,0,1,8.57.54,20.07,20.07,0,0,1,3.22.84.93.93,0,0,0,1.1-.7.94.94,0,0,0-.22-.82l-3.89-3.38a46.94,46.94,0,0,1-4.56-4,8.32,8.32,0,0,1-.84-1.44c-.59-1.06-1.13-2.15-1.62-3.26a36.69,36.69,0,0,1-2.14-6.26,42.65,42.65,0,0,1-1.05-12.18c.41-8.88,2.86-17.54,4.93-26.12,2.33-9.65,4.83-19.32,6.29-29.15,1.59-10.72,1.85-21.8-1.55-32.22-.32-1-1.88-.59-1.58.43,5.84,19.74-.08,40.25-4.7,59.58-2,8.55-4.47,17.13-5.12,25.93A43,43,0,0,0,65,360.17a7.33,7.33,0,0,0,1.8,2.3L69.71,365l4.74,4.12.88-1.51a27.94,27.94,0,0,0-7.18-1.35,30.11,30.11,0,0,0-8.1.28c-5.89,1.11-9.24,7-14.88,8.67-5.93,1.75-12.61-3-11.49-9.36.93-5.33,4.85-9.84,7.81-14.18a170.85,170.85,0,0,0,10.48-18,89.3,89.3,0,0,0,7.78-20c3.59-15.07,1.08-30.68-3.15-45.34-4.89-16.9-12.13-33.12-15.37-50.48-.2-1-1.79-.61-1.6.44Z"/><path class="cls-1" d="M41.36,205c-.31,7.66,3.89,14.26,7.23,20.83A41.26,41.26,0,0,1,52.5,237a84.1,84.1,0,0,1,1.34,11.31,34.37,34.37,0,0,1-1.32,12.14c-.34,1,1.29,1.48,1.63.45,2.27-6.84,1.51-14.29.5-21.29a43.79,43.79,0,0,0-3-11.19c-1.54-3.56-3.53-6.9-5.24-10.37-2-4.07-3.6-8.42-3.49-13a.81.81,0,0,0-1.61,0Z"/><path class="cls-1" d="M27.4,213.33c-7.34,15.49-4.14,32.92-.94,49a196,196,0,0,1,3.86,44.16,123.88,123.88,0,0,1-2.87,23.89.82.82,0,0,0,.68.95.84.84,0,0,0,.91-.51,104.63,104.63,0,0,0,2.87-20.45,184.09,184.09,0,0,0-.21-22.53,186.85,186.85,0,0,0-2.53-20.7c-1.55-8.46-3.55-16.85-4.27-25.45-.78-9.32-.07-19,3.91-27.56.43-.94-1-1.77-1.41-.82Z"/><path class="cls-1" d="M40.05,151.4c-3-2.4-7.22-1.6-10.09.55-3.14,2.36-4.77,6-6.25,9.51-.32.77.9,1.45,1.41.82,2.42-3,6.3-3.62,9.79-4.63a9,9,0,0,0,4.6-2.68,6,6,0,0,0,.77-3c.13-1-1.42-1-1.54,0,0-.34,0,.29-.06.37a3.6,3.6,0,0,0-.09.64,2.44,2.44,0,0,1-.91,1.48,12.66,12.66,0,0,1-5,2c-3.25.84-6.48,2-8.74,4.61l1.32,1c1.31-3,2.67-6.16,5.2-8.35a8.76,8.76,0,0,1,4-2,7.18,7.18,0,0,1,4.69.86C39.85,153,40.78,152,40.05,151.4Z"/><path class="cls-1" d="M34.11,149.8c-1.61-3.44-4.57-6.3-8.63-5.76s-6.73,3.71-8.38,7.14a.85.85,0,0,0,.38,1.15.89.89,0,0,0,.78,0c1.49-.76,3.21-.28,4.71.2a15.23,15.23,0,0,0,5,.94,10.16,10.16,0,0,0,4.48-1.14,5.21,5.21,0,0,0,1.66-1.74c.6-.84-.79-1.64-1.38-.81l-.53.73a1.9,1.9,0,0,1-.26.37c.23-.16-.14-.06-.2,0a4.84,4.84,0,0,0-.66.28,9.59,9.59,0,0,1-4.59.59c-3.1-.41-6-2.43-9.08-.86l1.15,1.16c1.39-2.89,3.56-5.7,6.9-6.29s5.88,2,7.27,4.87C33.18,151.54,34.54,150.73,34.11,149.8Z"/><path class="cls-1" d="M32.39,145.8a22.77,22.77,0,0,1-5.32-3.63c-1.44-1.45-2.62-3.57-1.78-5.62.67-1.67,2.51-3.42,4.42-2.65a19.84,19.84,0,0,0,2.67,1.28,4.18,4.18,0,0,0,3.13-.47.86.86,0,0,0,.2-1.19.84.84,0,0,0-1.06-.27c-1.86,1.07-3.24-.72-5-1.12a4.84,4.84,0,0,0-4.6,1.71,6.08,6.08,0,0,0-1.64,5.09,8.57,8.57,0,0,0,2.79,4.71,24.58,24.58,0,0,0,5.38,3.52c.89.47,1.68-.87.79-1.36Z"/><path class="cls-1" d="M34.12,134.48a5,5,0,0,0-5,2,5.2,5.2,0,0,0,0,5.67,9.54,9.54,0,0,1,1.3,2.87,6.09,6.09,0,0,0,1.1,2.38c.93,1.24,2.52,2.75,4.19,2a.8.8,0,0,0-.41-1.49c-1.13.12-2-.87-2.6-1.74a5.39,5.39,0,0,1-.72-1.84,7.43,7.43,0,0,0-.92-2.17c-.8-1.32-1.54-2.59-.88-4.16a3.41,3.41,0,0,1,3.58-2c1,.13,1.38-1.3.4-1.48Z"/><path class="cls-1" d="M35.45,142.33c-1.41-1.37-1.51-4-1.09-5.79a3.44,3.44,0,0,1,.53-1.28c.18-.28.82-1.11,1.18-1,.13,0,.35.47.42.61a3.3,3.3,0,0,1,.32.93,3.39,3.39,0,0,1-.14,1.81,10.61,10.61,0,0,1-1.32,2.06,4,4,0,0,0-.79,2.68.87.87,0,0,0,.84.84.86.86,0,0,0,.84-.84,3.59,3.59,0,0,1,1-2.44,6.28,6.28,0,0,0,1.2-2.41,5.16,5.16,0,0,0-.11-2.56,3.79,3.79,0,0,0-1.43-2.13c-1.69-1-3.37,1.14-3.91,2.51a8.13,8.13,0,0,0-.43,3.85,6.63,6.63,0,0,0,1.76,4.28c.75.7,1.87-.42,1.13-1.13Z"/><path class="cls-1" d="M32.46,133.78a21.92,21.92,0,0,1,.79-2.62,1.61,1.61,0,0,1,1.81-1.06,3.18,3.18,0,0,1,2.31.84,10.26,10.26,0,0,0,2.08,1.86,8.76,8.76,0,0,0,1.14.59,2.9,2.9,0,0,1,1.13.67,2.42,2.42,0,0,1,.1,2.25,3.28,3.28,0,0,1-4,1.89.82.82,0,0,0-1,.67.83.83,0,0,0,.51.9,4.76,4.76,0,0,0,5-1.3,4.63,4.63,0,0,0,.88-5,3.86,3.86,0,0,0-2-1.58A7.17,7.17,0,0,1,39,130.33a4.42,4.42,0,0,0-2.19-1.57,6.61,6.61,0,0,0-2.76-.2c-2.21.42-2.61,3-3.05,4.82a.76.76,0,0,0,.53.94.78.78,0,0,0,.94-.53h0Z"/><path class="cls-1" d="M40.52,142.94a13.81,13.81,0,0,1-.63,4.23,3.74,3.74,0,0,1-1,1.33c-.45.39-1,.61-1.47,1,.17-.12.15,0,.06,0h-.34c.12,0-.17,0-.22-.06a2,2,0,0,1-.36-.18,2.65,2.65,0,0,1-.79-2.16,3.55,3.55,0,0,1,0-1.3,5.9,5.9,0,0,1,.68-1.2A2.75,2.75,0,0,1,38.54,143c1.18-.23,2.27.24,3.42.38a3.78,3.78,0,0,0,3.35-1.23,3.67,3.67,0,0,0,1-3.75,2.61,2.61,0,0,0-3.24-1.63.77.77,0,0,0-.49,1,.79.79,0,0,0,.91.52,1.05,1.05,0,0,1,1.24.56,1.78,1.78,0,0,1-.35,1.83,2.77,2.77,0,0,1-1.38,1,4.69,4.69,0,0,1-2.17-.24c-2.24-.5-4.67,0-5.79,2.19a5,5,0,0,0-1,2.74,7,7,0,0,0,.61,3.18,2.88,2.88,0,0,0,3.71,1.31A6.53,6.53,0,0,0,41.27,148a13.1,13.1,0,0,0,.77-5,.78.78,0,0,0-1.56,0Z"/><path class="cls-1" d="M44.83,147.87a8.19,8.19,0,0,1,4-8.26c1.56-.88,3.34-1.27,4.68-2.53a6.45,6.45,0,0,0,2-4.6.76.76,0,0,0-1.52,0,5.25,5.25,0,0,1-2.85,4.3c-1.63.85-3.32,1.33-4.72,2.57a9.62,9.62,0,0,0-3,8.94c.2,1,1.68.56,1.52-.42Z"/><path class="cls-1" d="M44,148.85c7.76-.4,11.81-8.81,11.58-15.7a.81.81,0,1,0-1.62,0c-.18,3.35-.73,6.67-2.66,9.5a10.44,10.44,0,0,1-7.3,4.6c-1,.12-1,1.65,0,1.6Z"/><path class="cls-1" d="M52.18,143.59a6.52,6.52,0,0,0,4.84.58,16.31,16.31,0,0,0,2.55-.78,23.57,23.57,0,0,0,2.6-1,.81.81,0,0,0,.33-1,.83.83,0,0,0-1-.47,10.58,10.58,0,0,0-2.27.74,22.23,22.23,0,0,1-2.35.77,5.9,5.9,0,0,1-3.93-.28.82.82,0,0,0-1.09.41.82.82,0,0,0,.27,1Z"/><path class="cls-1" d="M54.89,139.73a3.38,3.38,0,0,1,.59-1.56c.25-.5.51-1,.8-1.48a7.92,7.92,0,0,1,2-2.48,3.11,3.11,0,0,1,2.59-.66c1.06.31,1.19,1.47,1.5,2.37a.83.83,0,0,0,1.59-.44,4.28,4.28,0,0,0-2.2-3.39,4.43,4.43,0,0,0-4,.44A8.92,8.92,0,0,0,55,135.65c-.35.59-.66,1.2-1,1.81a4.66,4.66,0,0,0-.71,2.27.81.81,0,0,0,1.62,0Z"/><path class="cls-1" d="M58.82,140.27a13.82,13.82,0,0,0,2.85-1.67c.85-.65,2.07-1.69,2.07-2.87,0-.81-.77-1.27-1.47-1.44a4,4,0,0,0-2.13.09,9,9,0,0,0-3.35,2.29c-.59.55-1.23,1.07-1.76,1.66a2.21,2.21,0,0,0-.71,2.16.87.87,0,0,0,.79.6.82.82,0,0,0,.78-.6,1.43,1.43,0,0,1,.2-.73,2.84,2.84,0,0,1,.5-.54c.54-.52,1.1-1,1.65-1.53.87-.8,1.89-1.79,3.16-1.8h.36a2.4,2.4,0,0,0,.38.12c.19.14.16,0-.08-.31v.1c-.06.09-.11.2-.17.29a5.19,5.19,0,0,1-1,1.09,16.87,16.87,0,0,1-2.78,1.71.79.79,0,0,0-.29,1.07.82.82,0,0,0,1.08.29Z"/><path class="cls-1" d="M55.62,132.6v-.22h0a.6.6,0,0,1,0-.19s.07-.19,0-.09,0-.06,0-.08l.11-.17c-.06.1,0,.05,0,0l.12-.12c.13-.14-.13.07,0,0l.14-.08h0l.22-.07h.71l.22.07h.06a3.24,3.24,0,0,1,.36.2l.15.1c.08.06-.07-.07,0,0l.3.28.12.14s.16.2.06.06a5.81,5.81,0,0,0,.55.78.82.82,0,0,0,1,.13.86.86,0,0,0,.37-.91,3.07,3.07,0,0,0-.68-1.12,3.84,3.84,0,0,0-.8-.76,3.35,3.35,0,0,0-2.19-.71,2.7,2.7,0,0,0-2.06,1,2.39,2.39,0,0,0-.48,2.21.79.79,0,0,0,1,.55.8.8,0,0,0,.55-1h0Z"/><path class="cls-1" d="M44,148.48a31.79,31.79,0,0,0,6.38.77,23.11,23.11,0,0,0,6.31-.54,8.67,8.67,0,0,0,4.48-2.38,11.18,11.18,0,0,0,2.37-4.74c.22-.89-1.14-1.57-1.56-.66a16.12,16.12,0,0,1-2,4.16,7.56,7.56,0,0,1-4.29,2.13,22.66,22.66,0,0,1-5.75.37c-1.89-.09-3.76-.47-5.65-.59a.75.75,0,0,0-.75.77.77.77,0,0,0,.55.72Z"/><path class="cls-1" d="M62.25,137.51a5,5,0,0,1,.33.55c-.07-.14,0,.14.06.18s0,.2.08.31,0,.1,0,0v1a3.79,3.79,0,0,1-.21.65c0-.12-.08.16-.09.19l-.16.3a5.72,5.72,0,0,1-.39.57l-.13.17a2,2,0,0,0-.26.38.79.79,0,0,0,1.08,1.09,3.54,3.54,0,0,0,.42-.35c.11-.13.22-.27.32-.41s.29-.42.43-.64a5.25,5.25,0,0,0,.63-1.62,4,4,0,0,0-.8-3.36.82.82,0,0,0-1.07-.06.8.8,0,0,0-.21,1.05Z"/><path class="cls-1" d="M53.77,143.16a10.82,10.82,0,0,1,4.32-2.45c1.28-.35,3.64-.73,4.46.66.46.78,1.86.27,1.51-.64-.84-2.2-3.89-2.19-5.81-1.77a10.68,10.68,0,0,0-5.56,3.12.76.76,0,0,0,1.08,1.08Z"/><path class="cls-1" d="M41.18,150a3.4,3.4,0,0,1,3.19-.76c1.26.31,1.92,1.35,2.61,2.37a5.31,5.31,0,0,0,2.42,2.31,4.5,4.5,0,0,0,3.07,0l-.8-1.38c-2,1.6-4.87,2.72-7.39,1.94-1.51-.46-5-2.52-3.1-4.46.69-.72-.4-1.81-1.1-1.1a3.48,3.48,0,0,0-.52,4.13,7.19,7.19,0,0,0,3.65,2.84c3.3,1.31,7,0,9.62-2.18a.83.83,0,0,0-.8-1.38,2.62,2.62,0,0,1-2.68-.31c-1-.91-1.48-2.19-2.42-3.12a4.88,4.88,0,0,0-3.49-1.35,4.69,4.69,0,0,0-3.36,1.37C39.34,149.55,40.43,150.6,41.18,150Z"/><path class="cls-1" d="M56,125.65a.39.39,0,0,0,.07.27v.2s0,.31,0,.15a11.55,11.55,0,0,1,0,2.2v.41h0l-.09.56a.81.81,0,0,0,1.56.44h0a10.32,10.32,0,0,0,0-4.69.84.84,0,0,0-1-.59.83.83,0,0,0-.58,1h0Z"/><path class="cls-1" d="M55.63,120.09c1.75-.85,3.53-1.56,5.34-2.28l-.65-1.48a11.55,11.55,0,0,0-3.64,3.72.82.82,0,0,0,.3,1.14.84.84,0,0,0,1.14-.3h0c.1-.18.2-.36.31-.53l.15-.21s.2-.27.12-.17a7.86,7.86,0,0,1,.73-.8,13.85,13.85,0,0,1,1.74-1.4.86.86,0,0,0,.34-1,.81.81,0,0,0-1-.48c-1.93.76-3.87,1.53-5.74,2.44a.84.84,0,0,0-.3,1.15.84.84,0,0,0,1.15.3h0Z"/><path class="cls-1" d="M46.33,138.64a15.77,15.77,0,0,1-.7-5.28,14.4,14.4,0,0,1,1.24-5.16.86.86,0,0,0-.29-1.13.82.82,0,0,0-1.13.3c-1.58,3.55-2.1,8-.59,11.67C45.22,139.92,46.59,139.61,46.33,138.64Z"/><path class="cls-1" d="M46,130.4c-.91-4.27-5.93-5.77-9.68-6.32-5.09-.75-10.32-.29-15.32-1.91a.84.84,0,0,0-1,.63.83.83,0,0,0,.08.6,49.74,49.74,0,0,1,5.16,10.12c.38.93,1.84.59,1.55-.42a37.39,37.39,0,0,0-5.27-10.55l-.94,1.23c4.33,1.42,8.9,1.29,13.39,1.7,3.72.34,9.29,1.1,10.55,5.34A.79.79,0,0,0,46,130.4Z"/><path class="cls-1" d="M35.7,103.42a5.33,5.33,0,0,1-.4-4.8,6.73,6.73,0,0,0,1-2.52,2.82,2.82,0,0,0-1.15-2.24,3.39,3.39,0,0,0-4.7,1l0,.06a5.83,5.83,0,0,0-.29,5.4,15.24,15.24,0,0,0,4.12,5.3c.79.72,2-.43,1.18-1.19a18.13,18.13,0,0,1-3.22-3.67,5.11,5.11,0,0,1-.65-4.44c.43-1,2.07-2.12,2.92-.85.42.63-.06,1.25-.37,1.81a6.6,6.6,0,0,0,.24,6.9c.59.79,1.87.11,1.36-.8Z"/><path class="cls-1" d="M35.17,100h0l.12-.13c.1-.13-.09,0,0,0l.23-.14c.15-.08-.11,0,.07,0a1.8,1.8,0,0,1,.4-.1h.18c-.08,0,.29.08,0,0,0,0,.14.09.06,0a1,1,0,0,1,.38.75h0v.56a.65.65,0,0,1-.07.35,4.62,4.62,0,0,1-.43,1.14,10.54,10.54,0,0,1-.72,1.15,8.29,8.29,0,0,0-.83,1.14.8.8,0,0,0,.21,1.12.81.81,0,0,0,1.06-.12,7.18,7.18,0,0,0,.92-1.14,11.41,11.41,0,0,0,.76-1.19,5.78,5.78,0,0,0,.78-2.68,2.9,2.9,0,0,0-1.13-2.41,2.23,2.23,0,0,0-2.07-.09,1.9,1.9,0,0,0-1.43,2,.77.77,0,0,0,1,.53.78.78,0,0,0,.57-.73Z"/><path class="cls-1" d="M35.48,99.26a3,3,0,0,1,3.63-2.19,2.81,2.81,0,0,1,.68.26,3.93,3.93,0,0,1,1.61,5c-.74,1.82-2.44,3-3.64,4.54a6.29,6.29,0,0,0-1.59,5.63l1.42-.82c-1.6-1.43-3.12-4-2-6.14a.78.78,0,0,0-.36-1.05.77.77,0,0,0-1,.26c-1.83,2.6,0,6.28,2.11,8.12a.85.85,0,0,0,1.2,0,.86.86,0,0,0,.22-.81c-.77-2.63,1.84-4.69,3.38-6.42s2.6-3.85,2.11-6.25a5.15,5.15,0,0,0-4.45-4A4.46,4.46,0,0,0,34,98.85a.77.77,0,0,0,1.48.41Z"/><path class="cls-1" d="M36.69,112.6c-.22-1.66-1.74-2.85-3.16-3.51-1.65-.76-3.71-1-5-2.44-2.67-3-.39-7.15,1.82-9.56.75-.82-.47-2-1.22-1.22-2.59,2.81-4.58,6.69-2.84,10.48a6.91,6.91,0,0,0,4.24,3.44c1.8.66,4,1.18,4.6,3.23a.78.78,0,0,0,1,.55.8.8,0,0,0,.56-1Z"/><path class="cls-1" d="M25.86,100.47c-2,3.45-3.82,8-.77,11.5,1.43,1.62,3.48,1.75,5.5,1.9,1.19.08,2.39.15,3.59.26.38,0,1.25,0,1.52.38s.07.9.1,1.25c.06.73,1.14,1.22,1.53.41a2.83,2.83,0,0,0-.11-2.55,3.22,3.22,0,0,0-2.55-1.19c-1.17-.13-2.35-.16-3.52-.24a13.06,13.06,0,0,1-3.42-.39,4.43,4.43,0,0,1-2.65-4.13c-.1-2.3,1-4.46,2.13-6.41a.79.79,0,0,0-.28-1.07A.77.77,0,0,0,25.86,100.47Z"/><path class="cls-1" d="M42.19,98a8.1,8.1,0,0,1,3.62.79,7.52,7.52,0,0,1,2.79,1.55c1.11,1.22.63,3-.33,4.14-1.36,1.61-3.72,1.63-5.53,2.52a14.3,14.3,0,0,0-4.45,3.46,10.4,10.4,0,0,0-2.5,6.69c-.18,2.62.11,5.8,2.27,7.59.83.69,2-.5,1.2-1.19-1.86-1.55-1.94-4.31-1.77-6.54a8.45,8.45,0,0,1,2.26-5.67,12.83,12.83,0,0,1,4-3c1.42-.68,3.1-.76,4.44-1.62,2.14-1.37,3.41-4.22,2.23-6.61a5.42,5.42,0,0,0-2.84-2.37c-1.75-.79-3.6-1.6-5.6-1.29C41.11,96.58,41.32,98,42.19,98Z"/><path class="cls-1" d="M46.68,105.74a4.75,4.75,0,0,0-2.3,3.92c-.24,2.06,0,4.18-.15,6.25a16,16,0,0,1-1.09,5.64,4.39,4.39,0,0,1-1.68,1.89,3.76,3.76,0,0,1-2.42.35.82.82,0,0,0-.81.83.85.85,0,0,0,.4.69c1.55.77,3.43,0,4.64-1a8.1,8.1,0,0,0,2.28-4.85A38.87,38.87,0,0,0,46,113c0-2-.4-4.5,1.45-5.84a.81.81,0,0,0,.28-1.09.79.79,0,0,0-1.08-.28h0Z"/><path class="cls-1" d="M23.18,108.85a10.9,10.9,0,0,0-2.94,6.83c-.18,2.27.24,5.49,2.46,6.7a3,3,0,0,0,3.27-.17,14.41,14.41,0,0,1,3.12-2,10,10,0,0,1,7.28,0c1.07.4,1.54-1.32.47-1.71a11.6,11.6,0,0,0-6.42-.39,11.42,11.42,0,0,0-3,1.12c-.93.49-1.65,1.27-2.54,1.78-1.13.65-2.14-.46-2.54-1.43a8.26,8.26,0,0,1-.5-3.37A10.47,10.47,0,0,1,24.28,110c.59-.75-.36-1.79-1.07-1.08Z"/><path class="cls-1" d="M29.2,120.33a7.82,7.82,0,0,0,1.15,1.6,10.73,10.73,0,0,0,1.32,1.29,12.35,12.35,0,0,0,1.57,1.11,8.49,8.49,0,0,0,1.81.9.82.82,0,0,0,1-.64.81.81,0,0,0-.34-.86c-.52-.28-1.07-.5-1.57-.81a7.61,7.61,0,0,1-.73-.47c-.28-.2-.37-.27-.62-.47a11.71,11.71,0,0,1-1.24-1.2c-.44-.49-.74-.93-1.13-1.4a.75.75,0,0,0-1-.06.78.78,0,0,0-.2,1Z"/><path class="cls-1" d="M44.73,122.1c.61-1.24,2.22-1.54,3.46-1.81a14.8,14.8,0,0,1,5.38-.52c1.9.29,3.14,1.64,4.82,2.41a6.69,6.69,0,0,0,4.84.26l-.81-1.4a26.08,26.08,0,0,1-9.94,4.76,25.73,25.73,0,0,1-5.3.74c-1.12,0-3.82.35-4.22-1.12a.8.8,0,0,0-1.57.22c0,1.81,1.88,2.5,3.44,2.64a24.65,24.65,0,0,0,6.58-.44,28.42,28.42,0,0,0,12.19-5.62c.68-.52-.06-1.62-.81-1.4a5.19,5.19,0,0,1-3.07.06A11.58,11.58,0,0,1,57,119.33,8.74,8.74,0,0,0,51.6,118a23,23,0,0,0-4.94.91,4.81,4.81,0,0,0-3.3,2.4c-.42.92.91,1.73,1.37.8Z"/><path class="cls-1" d="M45.73,115.78c1-2.77,3.66-4.1,6.14-5.31a37.37,37.37,0,0,1,9.9-2.81L61,106.25a14,14,0,0,0-2.49,2.88,8.33,8.33,0,0,0-1,3.75,16.5,16.5,0,0,1-.58,3.82,4.17,4.17,0,0,1-1.66,2.09c-.64.49-.31,1.8.61,1.45C58,119.4,58.79,117.16,59,115a15.94,15.94,0,0,1,.58-4.24,10.05,10.05,0,0,1,2.61-3.32.85.85,0,0,0,0-1.2.83.83,0,0,0-.78-.21,39.58,39.58,0,0,0-10.75,3.22c-2.75,1.36-5.42,3-6.36,6.11-.29,1,1.19,1.37,1.52.42Z"/><path class="cls-1" d="M150,24.44a4.49,4.49,0,0,0,.6-2.82,2.75,2.75,0,0,0-1.34-2.17,1.81,1.81,0,0,0-2.41.88v0a2.73,2.73,0,0,0,.28,2.69c.26.41.58.78.85,1.19a2,2,0,0,1,.18.3l.08.15h0a1.92,1.92,0,0,0,.11.37.24.24,0,0,0,0,.12v.13a.79.79,0,0,0,1.54.21,3.61,3.61,0,0,0-1-2.8c-.14-.18-.27-.37-.4-.57a2.29,2.29,0,0,1-.16-.31h0l-.06-.16V21.5h0v-.13a2.76,2.76,0,0,1,.08-.27c-.06.18,0,0,0-.08l.06-.08h0c.06-.08.06-.06,0,0l.11-.07c-.1,0-.11.05,0,0s.08,0,0,0h.13c-.22-.06.15.12,0,0l.19.2c-.11-.13.06.11.08.14l.06.13h0a2.65,2.65,0,0,1,0,1.19,3.22,3.22,0,0,1-.34,1.13.77.77,0,0,0,.16,1.09.78.78,0,0,0,1.09-.16Z"/><path class="cls-1" d="M149.73,26a13.41,13.41,0,0,0,3.79-8,5.87,5.87,0,0,0,0-2.21A2.33,2.33,0,0,0,152,14.33a9.51,9.51,0,0,0-4.44-.68,9.68,9.68,0,0,0-7.27,4.27c-1.4,2.07-2.73,5.91-.32,7.74,2.24,1.7,6,.89,7.36,3.84a.84.84,0,0,0,1.15.3,1,1,0,0,0,.3-.3,11.58,11.58,0,0,0,1.69-4.35c.16-1-1.34-1.49-1.58-.43a13,13,0,0,1-1.56,3.93h1.45c-.93-2.08-3.2-2.95-5.28-3.42a5,5,0,0,1-2.81-1.18c-.72-.86-.25-2.38.07-3.33a8,8,0,0,1,4.81-4.92,8.29,8.29,0,0,1,3.73-.47,7.13,7.13,0,0,1,1.76.4c.23.08.61.17.75.38a1.56,1.56,0,0,1,.11.93,12.57,12.57,0,0,1-3.27,7.77c-.67.74.39,1.82,1.1,1.1Z"/><path class="cls-1" d="M148.7,19.11a2.6,2.6,0,0,0-3.15-.21,3.32,3.32,0,0,0-1.41,3.22,6.82,6.82,0,0,0,1.72,3.54,10.25,10.25,0,0,1,1,1.35c.3.51.46,1.08.72,1.61.41.83,1.64.23,1.44-.61a6.74,6.74,0,0,0-1.31-2.62A11,11,0,0,1,146,22.93a2.39,2.39,0,0,1,.11-2.41,1.21,1.21,0,0,1,1.69-.19c.69.53,1.56-.62.92-1.2Z"/><path class="cls-1" d="M152.34,19.21a16.06,16.06,0,0,0,.2,8.67,7.67,7.67,0,0,1,.43,2.18,4.4,4.4,0,0,1-.72,2c-.67,1.1-1.44,2.59-2.94,2.4-.93-.12-1,1.3-.21,1.57,1.5.49,2.8-.56,3.64-1.7a7.92,7.92,0,0,0,1.89-4.3c0-1.66-.78-3.26-1-4.9a16.42,16.42,0,0,1,.2-5.55.75.75,0,0,0-.62-.88.74.74,0,0,0-.84.48Z"/><path class="cls-1" d="M147.52,28.69a14.69,14.69,0,0,0-.54,4.94,4.45,4.45,0,0,0,.53,1.91,2.3,2.3,0,0,0,1.56,1.22.82.82,0,0,0,.44-1.59h0l-.17-.06h0L149.2,35h0l-.11-.12h0a1.52,1.52,0,0,1-.17-.3h0l-.06-.18a2.42,2.42,0,0,1-.1-.36,3.72,3.72,0,0,1-.08-.66,15.33,15.33,0,0,1,.43-4.16.8.8,0,0,0-.64-.92.79.79,0,0,0-.88.51Z"/><path class="cls-1" d="M153.48,20c2.65-.81,5.21.66,6.76,2.78s2.83,4.9.92,7.17-4.85,2.56-7.44,3.19c-2.36.58-4.77,1.44-6.3,3.43-.58.76.66,1.65,1.3,1,2.34-2.34,5.52-2.62,8.56-3.48,2.73-.77,5.53-2.32,6.41-5.22s-1-6-2.83-8a7.52,7.52,0,0,0-7.81-2.43.8.8,0,0,0,.43,1.54Z"/><path class="cls-1" d="M138.55,22.57a6.11,6.11,0,0,0-2.25,3.31,3.63,3.63,0,0,0,1.06,3.27A2.71,2.71,0,0,1,138,32a26.45,26.45,0,0,0-.89,3.16c-.39,2.63,1.61,4.23,3.91,5,2.71.91,5.34-.85,7.15-2.75a.84.84,0,0,0-.12-1.18.83.83,0,0,0-1,0c-1.83,1.52-3.61,3.26-6.12,2.09-.84-.39-1.87-.91-2.11-1.9a4.7,4.7,0,0,1,.36-2.43c.5-1.56,1.16-3.29.3-4.86-.46-.84-1.49-1.43-1.51-2.47,0-1.24,1-2.12,1.77-3a.77.77,0,0,0-1.09-1.09h0Z"/><path class="cls-1" d="M143,26c-1.45.19-1.67,1.71-1.64,2.93a8.9,8.9,0,0,0,4.33,7.28,4.36,4.36,0,0,0,1.85.71.81.81,0,0,0,.86-.75.82.82,0,0,0-.4-.76c-.39-.26-.89-.36-1.3-.59a5.63,5.63,0,0,1-1-.67,7.18,7.18,0,0,1-1.75-2.09,6.8,6.8,0,0,1-.85-2.46,6.24,6.24,0,0,1-.1-1.29,1.88,1.88,0,0,1,.07-.53.64.64,0,0,1,.1-.24s-.19.06,0,0c.85-.14.66-1.65-.21-1.53Z"/><path class="cls-1" d="M147.06,38.33a4.16,4.16,0,0,1,1.84.92,7.9,7.9,0,0,0,1.91,1,5.08,5.08,0,0,0,4.23-.53,24,24,0,0,0,3.69-3.57,8.93,8.93,0,0,0,2.6-3.75.8.8,0,0,0-1.46-.62A13,13,0,0,1,157.39,35l-1.67,1.72a9.63,9.63,0,0,1-1.65,1.54,3.39,3.39,0,0,1-3.53,0c-1.14-.66-2.1-1.47-3.48-1.49a.77.77,0,0,0,0,1.54Z"/><path class="cls-1" d="M153.58,17.6a6,6,0,0,1,5.4.73,4.49,4.49,0,0,1,1.7,4.37.84.84,0,0,0,.47,1.09.85.85,0,0,0,1.09-.48,1,1,0,0,0,0-.16,6.12,6.12,0,0,0-2.23-6,7.26,7.26,0,0,0-6.85-1c-.91.33-.55,1.76.41,1.48Z"/><path class="cls-1" d="M139.82,18.09a6,6,0,0,0-4.46,3.18A16.58,16.58,0,0,0,133,27.09a5.42,5.42,0,0,0,.3,2.87,5.64,5.64,0,0,1,.49,1.67,6.31,6.31,0,0,0,.15,1.62,3.56,3.56,0,0,0,3.9,2.57c1-.2.62-1.5-.22-1.6a2.39,2.39,0,0,1-1.69-.73c-.54-.63-.41-1.38-.49-2.16a9.85,9.85,0,0,0-.68-2.2,4.16,4.16,0,0,1,0-2.42,18.45,18.45,0,0,1,1.83-4.26A5.45,5.45,0,0,1,140,19.6C140.84,19.38,140.71,18,139.82,18.09Z"/><path class="cls-1" d="M144,38.87a6.67,6.67,0,0,0-2.42,2.3,5.56,5.56,0,0,0-.65,3.1c.16,2.33,1.5,4.27,3,6,.54.65,1.58-.05,1.37-.8a2.58,2.58,0,0,1,1.59-3.14,17.52,17.52,0,0,1,3.82-.63,5.58,5.58,0,0,0,3.42-1.53,5.87,5.87,0,0,0,1.22-4.38.78.78,0,1,0-1.56,0c-.07,1.37-.23,3-1.55,3.71a10,10,0,0,1-3.78.8,6.5,6.5,0,0,0-3.66,1.39,4.19,4.19,0,0,0-1.17,4.2l1.38-.8a8.93,8.93,0,0,1-2.48-4.76,4.16,4.16,0,0,1,.4-2.38,6.49,6.49,0,0,1,2-1.92c.68-.53-.21-1.67-.93-1.2Z"/><path class="cls-1" d="M153.74,40.83a5.3,5.3,0,0,0,3,2.21,22.46,22.46,0,0,0,4.67,1,12.38,12.38,0,0,0,8.83-2,.86.86,0,0,0,.28-1.17.84.84,0,0,0-.93-.38c-2.59.58-4.34-2.54-6-3.92-1.45-1.19-3.94-2.66-5.78-1.5-.72.45-.26,1.77.61,1.43,2.07-.8,4.28,1.46,5.55,2.8,1.61,1.7,3.58,3.39,6.1,2.82l-.65-1.54a10.67,10.67,0,0,1-7.39,1.83,22.15,22.15,0,0,1-4.06-.73,4.87,4.87,0,0,1-2.9-1.64c-.56-.81-1.86-.09-1.35.79Z"/><path class="cls-1" d="M136.37,33.55a18.82,18.82,0,0,0-8.88,9.14c-.32.68.38,1.64,1.12,1.13,2-1.33,4.39-1.22,6.66-1.13s4.94.16,6.86-1.21a.81.81,0,0,0,.28-1.09.79.79,0,0,0-1.08-.28,9.21,9.21,0,0,1-3.44.92,34.24,34.24,0,0,1-3.51,0c-2.27-.06-4.66.08-6.6,1.4l1.13,1.13a18.89,18.89,0,0,1,8.25-8.63c.9-.5.11-1.76-.79-1.35Z"/><path class="cls-1" d="M124.92,30.47c-3,3.49-3.33,9.2-1.77,13.39a.82.82,0,0,0,1,.55.84.84,0,0,0,.55-.55,9.18,9.18,0,0,1,2.51-4.29c1.25-1.21,2.88-1.84,4.24-2.88a7.2,7.2,0,0,0,1.68-1.43,4,4,0,0,0,.6-2.11c0-1.17-.32-2.86-1.42-3.52-.92-.55-1.75.87-.84,1.45a2.56,2.56,0,0,1,.48,1.06A3.27,3.27,0,0,1,132,34c-.21.58-.8.88-1.26,1.23a18.57,18.57,0,0,1-2,1.31,11,11,0,0,0-5.52,6.89h1.57c-1.35-3.64-1.18-8.7,1.32-11.84.62-.78-.45-1.9-1.12-1.12Z"/><path class="cls-1" d="M130.62,29.7a14.47,14.47,0,0,1-3.46.51,4.91,4.91,0,0,1-2.87-1.06c-1.83-1.43-2.52-3.67-3.51-5.68-.4-.79-1.65-.23-1.41.6a12.16,12.16,0,0,0,4.15,6.63c2.19,1.59,5.29,1.46,7.7.42a.78.78,0,0,0,.32-1,.79.79,0,0,0-.92-.45Z"/><path class="cls-1" d="M131.67,29.69c-1.86-1.54-2.85-3.77-4.21-5.7A10.9,10.9,0,0,0,125,21.4a12.23,12.23,0,0,0-3.55-1.7,6.32,6.32,0,0,0-4-.38,4.16,4.16,0,0,0-2.5,2.24,3.89,3.89,0,0,0,.08,3.56c.8,1.12,2,.08,3-.22,2.7-.85,5.77-.22,8.38.68,1,.35,1.47-1.28.44-1.63a19.13,19.13,0,0,0-6.17-1.09,10.8,10.8,0,0,0-3,.4,4.26,4.26,0,0,0-1.33.53c-.06,0-.35.11-.09.15s0,0,.06-.18a5.57,5.57,0,0,1,0-1,2.5,2.5,0,0,1,2-2,7.36,7.36,0,0,1,3.56.79,9.4,9.4,0,0,1,4.7,4.07c1.23,1.9,2.31,3.84,4.15,5.23.71.52,1.64-.67.95-1.23Z"/><path class="cls-1" d="M129.17,27.33c1.2-2.71,3.26-5.34,3.36-8.43a4.53,4.53,0,0,0-1.07-3.14,3.7,3.7,0,0,0-3.55-.73,1.85,1.85,0,0,0-.7.22c-.27.19-.41-.12,0,.4s.15.29.5.1a6.62,6.62,0,0,1,1.82-.81,4.89,4.89,0,0,1,3.87.63c1.1.84.3,3-.08,4a35.84,35.84,0,0,1-1.9,3.89,16.46,16.46,0,0,0-1.75,4.17,2.84,2.84,0,0,0,1.4,3.25c.93.58,1.78-.89.85-1.46-1.19-.74-.44-2.15,0-3.17.6-1.4,1.39-2.72,2.06-4.08,1-2.12,2.86-6.13.43-8a6.67,6.67,0,0,0-7.82.26,1.74,1.74,0,0,0-.74,1.59,1.09,1.09,0,0,0,1.15.89c.55,0,1-.36,1.6-.42a1.73,1.73,0,0,1,1.73.48c.93,1.34.35,3.12-.19,4.5-.69,1.78-1.72,3.4-2.46,5.16-.35.82,1.08,1.43,1.44.61Z"/><path class="cls-1" d="M132.89,21.87c.78,2.56.72,5.79-1.78,7.39a.85.85,0,0,0,.85,1.46c3.12-2,3.6-6,2.46-9.28-.33-1-1.84-.56-1.53.43Z"/><path class="cls-1" d="M120.3,18.92a3.73,3.73,0,0,1,1.94-4.13,1.67,1.67,0,0,1,.49-.22c.2-.06.41,0,.59-.05s.2-.1-.12-.54l-.22.35c-.1.19-.19.38-.28.57a4.32,4.32,0,0,0-.38,2.72c.38,1.74,2,2.76,3.15,3.94A11.83,11.83,0,0,1,127,23.4a10.55,10.55,0,0,1,1,2.31c.31.87,1.75.81,1.71-.23a7.38,7.38,0,0,0-2.07-4.15A17.66,17.66,0,0,0,126,19.65a7.75,7.75,0,0,1-1.7-1.73,2.31,2.31,0,0,1,0-2.25c.34-.8,1.07-1.69.21-2.43-1.3-1.12-3.34,0-4.33,1a4.9,4.9,0,0,0-1.38,5.09.79.79,0,0,0,1.52-.42Z"/><path class="cls-1" d="M124.31,15.8a.14.14,0,0,1,0-.09h0a.46.46,0,0,0,.07-.07l.1-.08h0l.2-.12h.09c.09,0-.2.07,0,0l.21-.11h.39a1.05,1.05,0,0,1,.24.06h0l.19.12c.13.08.25.19.39.27l.34.16a1.14,1.14,0,0,0,.58,0,.79.79,0,0,0,.56-.56.83.83,0,0,0-.21-.78,4.92,4.92,0,0,0-.56-.37,3.79,3.79,0,0,0-.45-.29A2.5,2.5,0,0,0,123,15a.79.79,0,1,0,1.31.87l0-.07Z"/><path class="cls-1" d="M127.15,16.92a.75.75,0,0,0,0-1.5.75.75,0,1,0,0,1.5Z"/><path class="cls-1" d="M126.77,15.48c-1,.25-2.19.87-2.21,2.07a1.63,1.63,0,0,0,.77,1.44,3.57,3.57,0,0,0,1.62.26,3.86,3.86,0,0,1,2.4.91,1.91,1.91,0,0,1,.58,1,2.7,2.7,0,0,1-.09,1.13.85.85,0,0,0,.37.92.82.82,0,0,0,1-.13,2.91,2.91,0,0,0,.11-3,4.21,4.21,0,0,0-2-1.86,6.22,6.22,0,0,0-1.51-.44c-.29-.05-.58-.08-.86-.1a2.89,2.89,0,0,0-.72,0h0a.24.24,0,0,1,0-.14.9.9,0,0,1,.36-.28c.18-.09.38-.16.58-.24a.77.77,0,0,0,.59-.9.76.76,0,0,0-.9-.59l-.1,0Z"/><path class="cls-1" d="M122.55,27.62c-2.45-.46-4.73.78-6.53,2.38a16.85,16.85,0,0,0-2.37,2.69A8.13,8.13,0,0,0,112,36.1a.85.85,0,0,0,.63,1,.86.86,0,0,0,.77-.2,7.1,7.1,0,0,1,5-1.59c1.69.11,4.14,1.31,5.51-.23a.83.83,0,0,0,0-1.15.81.81,0,0,0-1.15,0c-.6.49-1.73.14-2.39,0a10.85,10.85,0,0,0-3-.3,8.9,8.9,0,0,0-5.12,2.06l1.39.81c.37-2,1.91-3.78,3.33-5.13s3.24-2.54,5.18-2.27a.83.83,0,0,0,1-.55.81.81,0,0,0-.54-1h0Z"/><path class="cls-1" d="M164.26,25.43c3.2-1.88,3.66-5.79,3.91-9.14a3,3,0,0,1,1.06-2.54,5.56,5.56,0,0,1,3.12-.72c2.25.05,3.3,2.07,4.13,3.87l1-1.26a5.42,5.42,0,0,0-4.18.31,7.1,7.1,0,0,0-2.85,3.21,8.08,8.08,0,0,1-2.77,3.17,17.74,17.74,0,0,1-4.11,1.7.87.87,0,0,0-.51,1.12.88.88,0,0,0,1,.55c2.65-.64,5.39-1.89,7-4.15.79-1.1,1.22-2.48,2.21-3.43a3.76,3.76,0,0,1,3.74-.79.88.88,0,0,0,1.08-.59.85.85,0,0,0-.08-.68,9.31,9.31,0,0,0-3-4,6.58,6.58,0,0,0-5.47-.3,4.29,4.29,0,0,0-3,3.91A39.26,39.26,0,0,1,166,20a6.12,6.12,0,0,1-2.57,4,.82.82,0,0,0,.82,1.41Z"/><path class="cls-1" d="M176.4,17.06a3.16,3.16,0,0,1,1.7,1.44,4.74,4.74,0,0,1,.28,1.94,2.91,2.91,0,0,1-.46,1.67c-.33.36-1,.3-1.45.22-.73-.13-1.07-.58-1.7-.91a4.5,4.5,0,0,0-2.16-.46c-1.65,0-3.54.06-4.84,1.22-.72.65.23,1.9,1,1.36a6.62,6.62,0,0,1,4-.8,2.31,2.31,0,0,1,1.48.54,3.84,3.84,0,0,0,1.74.79,3.14,3.14,0,0,0,3.48-1.23,5.87,5.87,0,0,0,.49-3.73,4,4,0,0,0-3-3.46c-.8-.16-1.45,1-.6,1.41Z"/><path class="cls-1" d="M171.24,22.43a43.47,43.47,0,0,1,4.33-2.89,1.64,1.64,0,0,1,.89-.28,6.07,6.07,0,0,1,.84.12c.27,0,.29.06.52.31a2.67,2.67,0,0,1,.5.78.85.85,0,0,0,1.67-.22,3.33,3.33,0,0,0-1.63-2.32,3.79,3.79,0,0,0-1.28-.26,3.56,3.56,0,0,0-1.38,0A9.86,9.86,0,0,0,173,19.2c-.93.63-1.83,1.28-2.7,2-.69.56.23,1.77,1,1.25Z"/><path class="cls-1" d="M179.39,23.38c2-.24,3.19-2,3.9-3.72a3.92,3.92,0,0,0,.15-3.06,4.86,4.86,0,0,0-2-2.16,23.24,23.24,0,0,1-2.78-1.81,30.58,30.58,0,0,1-2.2-2.36A5.59,5.59,0,0,0,171,8.57c-1.9.52-4.5,2.82-3.6,5,.41,1,2,.63,1.64-.45s.62-1.93,1.36-2.42a3.61,3.61,0,0,1,2.52-.56c2,.3,3,2.35,4.45,3.61a13.91,13.91,0,0,0,2.45,1.7c.81.46,1.89,1,2.16,2a3.74,3.74,0,0,1-.78,2.62,3.84,3.84,0,0,1-2,1.72c-.78.28-.75,1.7.22,1.58Z"/><path class="cls-1" d="M168.32,9.54a6.42,6.42,0,0,0-4.57,1.61,4.67,4.67,0,0,0-1.46,4.1c.13.8.59,1.49.77,2.27s.08,1.67.23,2.49c.3,1.6,1.77,3,3.43,2.25.9-.38.25-1.78-.65-1.54-1.16.31-1.19-1.54-1.23-2.25a6.88,6.88,0,0,0-.29-1.86,9.25,9.25,0,0,1-.62-1.69,3,3,0,0,1,1.13-2.7,5.26,5.26,0,0,1,3.26-1.1.79.79,0,0,0,0-1.58Z"/><path class="cls-1" d="M164.21,25.75c3.84-.37,6.92,3.07,10.83,2.33a5.51,5.51,0,0,0,2.17-1c.69-.51,1.49-.79,2.18-1.28,1.21-.84,1.62-2.59.3-3.53-.89-.64-1.71.82-.85,1.45.3.22-.74.87-.82.91a11,11,0,0,0-1.68,1,4.36,4.36,0,0,1-3.86.77c-2.89-.68-5.37-2.71-8.48-2.15-.87.15-.68,1.64.21,1.55Z"/><path class="cls-1" d="M167.48,26.53c1.33.43,1.81,2.18,2.62,3.17a6.28,6.28,0,0,0,3,2,6.55,6.55,0,0,0,3.92.12c1.26-.41,1.9-1.54,3-2.17s2.26-.91,3.31-1.53a5.3,5.3,0,0,0,2.25-2.79,6.57,6.57,0,0,0-2.07-7c-.67-.51-1.5.46-1.11,1.12a10.52,10.52,0,0,1,1.63,3,4.1,4.1,0,0,1-.5,3c-1.14,1.76-3.7,1.89-5.27,3.16-.43.35-.77.84-1.22,1.15a2.94,2.94,0,0,1-1.65.45,5.37,5.37,0,0,1-3.07-.89c-1.81-1.22-2.1-3.76-4.41-4.39a.8.8,0,0,0-.92.66.8.8,0,0,0,.49.87Z"/><path class="cls-1" d="M162.73,24.62c-.34.5-.08,1.06.13,1.55a6.82,6.82,0,0,0,.62,1.16,7.93,7.93,0,0,0,1.92,2A7.57,7.57,0,0,0,168,30.47a10.36,10.36,0,0,0,1.48.23,4.61,4.61,0,0,0,1.61-.1.86.86,0,0,0-.23-1.69h-1.19a6.67,6.67,0,0,1-1-.13,6.42,6.42,0,0,1-2.07-.87,6,6,0,0,1-1.45-1.35,6.41,6.41,0,0,1-.51-.77,2.5,2.5,0,0,1-.38-.81.78.78,0,0,0-.79-.77.76.76,0,0,0-.66.38Z"/><path class="cls-1" d="M163.06,16.33a4.53,4.53,0,0,0-1.73,5.33,2.85,2.85,0,0,1,.31,1.35,3.21,3.21,0,0,0,0,1.74A2.33,2.33,0,0,0,162.86,26a1,1,0,0,0,1.3-.55,1,1,0,0,0,.06-.57.9.9,0,0,0-1.12-.56.85.85,0,0,0-.55.56h0l.4-.52h0l.44-.12h.13l-.19-.14c-.08-.08-.07-.07-.09-.18a4.52,4.52,0,0,1,.11-1.1,8.34,8.34,0,0,0-.56-2.25,3,3,0,0,1,.17-1.69,3.88,3.88,0,0,1,1-1.32.79.79,0,0,0-.07-1.1.78.78,0,0,0-.87-.11Z"/><path class="cls-1" d="M163.61,28.08a5.39,5.39,0,0,0,.42,5.16,10,10,0,0,0,4.67,3.66,36,36,0,0,1,5.93,2.71,11.44,11.44,0,0,1,3.8,4.53c.41.85,1.5.31,1.58-.43a23.36,23.36,0,0,0,0-7.37,8.45,8.45,0,0,0-3-5.23c-.76-.54-1.51.6-.95,1.23a9.29,9.29,0,0,1,2.4,4.8,24.1,24.1,0,0,1-.18,6.57l1.58-.42a12.77,12.77,0,0,0-3.19-4.2,16.86,16.86,0,0,0-5.06-2.8,16.54,16.54,0,0,1-5.2-2.62c-1.31-1.17-2.27-3.08-1.53-4.83.37-.87-.89-1.66-1.31-.76Z"/><path class="cls-1" d="M159.64,16.89c-3.7-4.79,1.15-11.09,1.77-16.06L160,1.4c1.15,1.45,2.22,3,3.3,4.49a19.06,19.06,0,0,1,2.46,4.44.8.8,0,0,0,1.54-.42c-1.07-3.61-3.94-6.43-6-9.47C161-.07,160-.11,159.85.63c-.58,3.3-2.25,6.26-2.87,9.54-.5,2.7-.32,5.7,1.62,7.82.68.74,1.65-.33,1.07-1.08Z"/><path class="cls-1" d="M183,16.89c1.94-.81,4.09.28,5.68,1.42a12.27,12.27,0,0,1,3.82,4.63c.81,1.67,1.22,3.52,2.15,5.12a9.11,9.11,0,0,0,4.5,3.59l-.2-1.39c-.56.59-2.13.36-2.86.38l-2.69.07-5.84.16c-3.46.09-7.21.54-10.39-1.14a.81.81,0,0,0-.82,1.4h0c3.35,2.21,7.87,1.57,11.66,1.47l6.74-.17c1.64,0,4.19.4,5.45-.92a.9.9,0,0,0,0-1.27.79.79,0,0,0-.15-.12A9.44,9.44,0,0,1,197,28.23a8.6,8.6,0,0,1-1.64-2.9,22.16,22.16,0,0,0-2.7-5.53c-2.21-2.93-6.42-6-10.22-4.39-.82.35-.22,1.79.61,1.45Z"/><path class="cls-1" d="M169.69,8.92A10.78,10.78,0,0,1,171,4.46c.92-1.52,2.64-2.06,4-3.13l-1.26-1a5.1,5.1,0,0,0-.37,4.31c.42,1.49,1.26,2.86,1.41,4.43a.79.79,0,0,0,1.57,0,11.49,11.49,0,0,0-1.24-4.37,3.86,3.86,0,0,1,0-3.56.82.82,0,0,0-.2-1,.81.81,0,0,0-1,.07c-.75.6-1.66,1-2.44,1.54a6.43,6.43,0,0,0-1.85,2,12.88,12.88,0,0,0-1.39,5.16.79.79,0,0,0,.77.78.82.82,0,0,0,.78-.78Z"/><path class="cls-1" d="M262.48,139.69c-.74,4.5-4.69,8.57-8.84,10.24l.92,1.19a12.35,12.35,0,0,0,1.87-5.08,15.48,15.48,0,0,0-.49-5.42,19.07,19.07,0,0,1-.28-2.38,2.42,2.42,0,0,1,.37-1.92c.49-.64,1.85-1.75,2.7-1.51a.83.83,0,0,0,.44-1.61c-1.16-.36-2.55.41-3.43,1.09a4.72,4.72,0,0,0-1.46,1.71,4,4,0,0,0-.3,2.33,22.55,22.55,0,0,0,.34,2.71,16.94,16.94,0,0,1,.54,3.17,10.62,10.62,0,0,1-1.73,6.07c-.36.56.25,1.46.91,1.2,4.76-1.89,9.27-6.38,10-11.6.11-.88-1.42-1.09-1.56-.21Z"/><path class="cls-1" d="M259,135.19c.91,2.59,2.93,5.11,5.65,5.89,3,.86,6.34-.14,9.09-1.44.79-.38.23-1.65-.59-1.41-2.55.74-5.12,1.93-7.82,1.26a5.73,5.73,0,0,1-2.94-1.81,17.17,17.17,0,0,1-2-3.09c-.43-.74-1.72-.26-1.42.6Z"/><path class="cls-1" d="M259.44,135.33c3.26.61,6.3-.6,9.54-.75a9.56,9.56,0,0,1,4.89,1.12c1.38.7,3.25,1.55,3.72,3.15a2.94,2.94,0,0,1-.17,2.12,3.33,3.33,0,0,1-.69.89,3.21,3.21,0,0,1-.48.34c-.3.07-.31.17,0,.31a3.92,3.92,0,0,1-.28-1c-.09-.23-.18-.47-.28-.69a10.44,10.44,0,0,0-1.13-1.91,20,20,0,0,0-6.45-5.42c-.95-.53-1.8.93-.85,1.45a17.67,17.67,0,0,1,6.19,5.27,7.63,7.63,0,0,1,.9,1.75,5.46,5.46,0,0,0,.59,1.59c.77,1,2.06.3,2.82-.33a4.66,4.66,0,0,0,.57-6.55l-.15-.17a12.74,12.74,0,0,0-3.71-2.41,11.54,11.54,0,0,0-4.17-1.19c-3.5-.25-6.9,1.42-10.4.91-1-.14-1.42,1.32-.42,1.51Z"/><path class="cls-1" d="M265.07,134.69c.85-1.81,1.4-3.75,2.26-5.56.65-1.37,1.44-3,2.86-3.65a2.22,2.22,0,0,1,1.74-.26,3.77,3.77,0,0,1,1.51,1.81c.21.51.39,1.12,1,1.3a1.28,1.28,0,0,0,1.52-1v0c.41-1.35-.29-3.06-1-4.19a7.61,7.61,0,0,0-3.4-3,3.58,3.58,0,0,0-4.42,1,13.53,13.53,0,0,0-2.5,4c-.74,1.73-1.28,3.53-2,5.26a11.26,11.26,0,0,1-1.25,2.38,1.4,1.4,0,0,1-1.77.54.85.85,0,1,0-.45,1.64c3.17.93,4.46-2.44,5.39-4.82,1.1-2.79,1.86-6.34,4.29-8.35,1.28-1.06,3.09.26,4,1.25a6,6,0,0,1,1.17,1.8,8.25,8.25,0,0,1,.3,1,4.86,4.86,0,0,1,.1.55c0,.06-.05.46-.05.49l.78-.06-.05-.1a1.63,1.63,0,0,0-.13-.39,4.13,4.13,0,0,0-.39-.72,5.5,5.5,0,0,0-1.77-1.82,3.85,3.85,0,0,0-3.71.42c-3.23,2-3.92,6.49-5.36,9.69-.41.92.93,1.73,1.37.8Z"/><path class="cls-1" d="M264.51,125.33a10.81,10.81,0,0,0-4.52,3.53,7.11,7.11,0,0,0-1.26,5.45.85.85,0,0,0,1,.59.89.89,0,0,0,.59-1c-.56-3.33,2.2-5.87,5-7.15a.8.8,0,0,0-.81-1.38Z"/><path class="cls-1" d="M277.89,136.64a5.55,5.55,0,0,0,3.33-5.46,4.8,4.8,0,0,0-1.17-3.13c-.78-.76-2-.9-2.49.23s-.7,2.15-1.78,2.64-2.75.16-4,0c-2.31-.25-5.13-.19-7,1.33-.84.67.24,1.72,1.06,1.37a10.4,10.4,0,0,1,2.77-.93,13.67,13.67,0,0,1,3-.06c2,.14,4.21.65,5.9-.8a5.69,5.69,0,0,0,1.42-2.16,3.56,3.56,0,0,0,.23-.62l.08-.21c-.47.11-.56.24-.27.38.07.18.27.35.35.53a4.47,4.47,0,0,1,.2.65,4.35,4.35,0,0,1-2.12,4.78c-.74.44-.25,1.78.6,1.44Z"/><path class="cls-1" d="M278.47,129.86a2.87,2.87,0,0,0-.59-2.83,3,3,0,0,0-1.17-.77,3.7,3.7,0,0,0-.55-.14l-.3-.08H276l-.22-.09a1,1,0,0,0-.33-.06.81.81,0,0,0-.8.82.77.77,0,0,0,.11.39c.3.48.84.54,1.34.67l.24.07h-.05l.12.06.2.13h0l.1.09.15.16c.11.12-.1-.15,0,0l.07.11s.07.18.11.2a.67.67,0,1,1-.63-.71.67.67,0,0,1,.63.63v.07s0,.09.05.14,0,.2.06.25v.22a1,1,0,0,0-.07.29.79.79,0,0,0,.51,1h0a.82.82,0,0,0,1-.55Z"/><path class="cls-1" d="M274.41,128a.75.75,0,1,0,0-1.5.75.75,0,1,0,0,1.5Z"/><path class="cls-1" d="M273.78,127.66c.15.39.46.94.33,1.37a.29.29,0,0,1-.17.23h0a1.36,1.36,0,0,1-.24-.24,8.09,8.09,0,0,0-2.52-1.91,4.62,4.62,0,0,0-3.27-.27,3.16,3.16,0,0,0-2.19,2.07.82.82,0,0,0,.6,1,.84.84,0,0,0,.89-.36,2.59,2.59,0,0,1,.81-.9,2.35,2.35,0,0,1,1.32-.31,4.47,4.47,0,0,1,2.77,1.42,3.72,3.72,0,0,0,1.37,1.08,1.71,1.71,0,0,0,1.65-.43c1-.93.57-2.31,0-3.34-.39-.74-1.7-.22-1.38.59Z"/><path class="cls-1" d="M267.26,141.09c1.72,1.43,2.21,3.73,2.21,5.88,0,2.33-.37,5.2-1.82,7.09l1.56.43a10,10,0,0,0-2-5.56,10.77,10.77,0,0,0-2.21-2.11c-.77-.59-2.17-1.34-2.22-2.44a.82.82,0,0,0-1.64,0c-.18,2.27,2.68,3.42,4,4.75a8.19,8.19,0,0,1,2.37,5.36.84.84,0,0,0,.89.8.86.86,0,0,0,.67-.38,9.56,9.56,0,0,0,1.55-3.69,19.05,19.05,0,0,0,.48-4.64c-.09-2.57-.81-5.13-2.91-6.74-.71-.55-1.65.67-1,1.25Z"/><path class="cls-1" d="M261.51,124.64c-.31-3.52-3.33-5.57-6.15-7.17-.8-.45-1.69-1-1.87-1.94a5,5,0,0,1,.56-2.88c1-2,3.06-2.16,5.05-2.13l-.61-1.47a5.26,5.26,0,0,0-1.5,3.45,6,6,0,0,0,1.32,3.8,8.73,8.73,0,0,1,1.81,3.85,17.58,17.58,0,0,1-.23,4.58c-.13,1,1.5,1.17,1.7.23.56-2.64.64-5.66-.76-8.06-.62-1.08-1.6-2-2-3.23a3.54,3.54,0,0,1,.84-3.4.88.88,0,0,0,0-1.23.86.86,0,0,0-.58-.24c-2.13,0-4.47.16-5.9,2-1.24,1.57-2,4.32-1,6.17.92,1.63,3,2.31,4.48,3.32s3,2.46,3.17,4.37c.1,1,1.73,1,1.64,0Z"/><path class="cls-1" d="M259.41,110.55a2.66,2.66,0,0,1,1.91-.76,4.36,4.36,0,0,1,1.84.64c.39.23,1,.63,1.12,1.13a2.12,2.12,0,0,1-.67,1.43c-.41.44-1,.59-1.48,1a4.16,4.16,0,0,0-1,1.42c-.7,1.43-1.48,3.14-1,4.76a.87.87,0,0,0,1.71-.3.75.75,0,0,0,0-.16,5,5,0,0,1,.57-2.71,4.12,4.12,0,0,1,1-1.71c.24-.18.53-.26.79-.42a3.67,3.67,0,0,0,1-.84,4.11,4.11,0,0,0,1-2.22c.11-1.68-1.6-2.79-3-3.33a4,4,0,0,0-4.89,1.15.75.75,0,0,0,.2,1,.8.8,0,0,0,1-.06Z"/><path class="cls-1" d="M261.78,117.15c-.14-.87-.3-1.73-.42-2.6a14.56,14.56,0,0,1-.26-2.37,1.37,1.37,0,0,1,.14-.72c.15-.26.38-.49.52-.77,0,0,.1-.11,0-.06h0a2.46,2.46,0,0,1,.48-.16,2.6,2.6,0,0,1,.88,0,.84.84,0,0,0,.83-.74.86.86,0,0,0-.6-.93,3.13,3.13,0,0,0-2.63.55,3.78,3.78,0,0,0-.73,1c.07-.12-.12.16-.12.15a1.67,1.67,0,0,0-.18.28,2.15,2.15,0,0,0-.24.7,9.18,9.18,0,0,0,.17,3c.16,1.07.34,2.13.59,3.18a.81.81,0,0,0,1,.56h0a.84.84,0,0,0,.55-1Z"/><path class="cls-1" d="M266.05,110.53a4.47,4.47,0,0,0-.79-3.71,5.39,5.39,0,0,0-2.78-2.42,4.52,4.52,0,0,0-3.68.94,13.66,13.66,0,0,1-3.49,1.87,11.51,11.51,0,0,0-3.63,1.38,5.18,5.18,0,0,0-2,2.83c-.56,2,.39,5.52,2.94,5.64.93,0,1.18-1.54.22-1.67s-1.31-1-1.51-1.8a3.43,3.43,0,0,1,.34-2.51c1-1.77,3.07-1.79,4.78-2.46a13,13,0,0,0,2.48-1.29,5.57,5.57,0,0,1,2.57-1.3c.93-.06,1.6.77,2.09,1.46a4.06,4.06,0,0,1,.86,2.83c-.07,1,1.3,1,1.58.21Z"/><path class="cls-1" d="M249.42,114.41a6.2,6.2,0,0,0-.56,4.62,4.64,4.64,0,0,0,2.78,3,17.36,17.36,0,0,0,2.39.31c.76.17,1.44.6,2.19.81a3.2,3.2,0,0,0,2.41-.14,2.2,2.2,0,0,0,1.17-1.82c0-.93-1.49-1.17-1.66-.22-.21,1.13-1.67.51-2.35.22a6.6,6.6,0,0,0-1.87-.56,8.07,8.07,0,0,1-1.77-.2c-2.14-.76-2.1-3.5-1.37-5.23a.81.81,0,0,0-.28-1.08.78.78,0,0,0-1.08.28Z"/><path class="cls-1" d="M261.81,124.64a9.66,9.66,0,0,1,3.13-3.78,10.3,10.3,0,0,0,3.16-4,4.79,4.79,0,0,0,.26-2.4c-.06-.44-.18-.86-.21-1.3s0-.83,0-1.25c-.13-1.45-1.45-2.92-3-2.08-1,.53-.11,2,.85,1.46.33-.18.43,1,.43,1.19a10.36,10.36,0,0,0,.2,2,4.25,4.25,0,0,1-1.25,3.68c-1.77,2-4.38,3.34-5.1,6.07a.78.78,0,0,0,.55,1,.8.8,0,0,0,1-.55Z"/><path class="cls-1" d="M263.75,122.33c.94-1,2.58-.68,3.79-1a6.22,6.22,0,0,0,2.88-1.62,6.89,6.89,0,0,0,1.75-2.92,4,4,0,0,0,.1-1.76c-.11-.67-.45-1.26-.57-1.93-.22-1.31.14-2.66,0-4a5,5,0,0,0-1.35-3,6.33,6.33,0,0,0-7-1.25.82.82,0,0,0-.28,1.12.85.85,0,0,0,.69.4,9,9,0,0,1,3.54-.1,3.84,3.84,0,0,1,2.23,1.62c1.1,1.8,0,4.21.62,6.17a6.79,6.79,0,0,1,.44,1.41,3,3,0,0,1-.4,1.55,5.07,5.07,0,0,1-2,2.13c-1.79,1-4.11.25-5.58,2-.66.76.41,1.87,1.12,1.12Z"/><path class="cls-1" d="M260.08,125.54c.25.52.86.56,1.37.59a7.5,7.5,0,0,0,1.49-.09,7.39,7.39,0,0,0,2.63-1,7.6,7.6,0,0,0,2-1.75,5.55,5.55,0,0,0,1.26-2.6c.08-.89-1.18-1.11-1.6-.43-.19.31-.26.65-.43,1a6.66,6.66,0,0,1-.52.85,5.64,5.64,0,0,1-1.35,1.32,6.08,6.08,0,0,1-1.95.9,8.62,8.62,0,0,1-1,.15h-.85c-.71-.45-1.38.41-1.07,1.06Z"/><path class="cls-1" d="M253.08,121.78a4.41,4.41,0,0,0,4,3.81,2.47,2.47,0,0,1,1.19.27,3.87,3.87,0,0,0,1.3.69,2.33,2.33,0,0,0,1.66-.37,1,1,0,0,0-.16-1.83.87.87,0,0,0-1,.4.85.85,0,0,0,.14,1h0l-.26-.62c0-.45.42-.59.1-.4,0,0-.2.1-.14.08h-.11a9.29,9.29,0,0,1-.82-.48,7.17,7.17,0,0,0-2.18-.48,2.93,2.93,0,0,1-1.43-.81,3.68,3.68,0,0,1-.82-1.5.77.77,0,0,0-.84-.56.76.76,0,0,0-.67.76Z"/><path class="cls-1" d="M252.22,125c-5.73,1.22-9-5.53-13.12-8.14l-.19,1.47c1.69-.38,3.42-.66,5.12-1a18.14,18.14,0,0,1,5.15-.31c.88.09,1.1-1.43.21-1.57-3.65-.59-7.34.74-10.91,1.3-.76.11-.69,1.12-.2,1.47,2.41,1.73,4.17,4.15,6.48,6s5.05,3.08,7.86,2.22a.76.76,0,0,0,.44-1,.75.75,0,0,0-.84-.48Z"/><path class="cls-1" d="M249.52,113.05a10.92,10.92,0,0,1-3.29-2.87,4.72,4.72,0,0,1-.77-2c-.13-.92-.13-1.85-.34-2.76l-1.47.62c1.7,2.92,5.5,1.86,8.16,2.83.84.31,1.4-1,.61-1.44-1.42-.73-3-.65-4.56-.79a3.51,3.51,0,0,1-2.82-1.41.81.81,0,0,0-1.47.62c.23,1,.2,1.94.36,2.9a5.78,5.78,0,0,0,1,2.37,12.88,12.88,0,0,0,3.82,3.3c.85.53,1.62-.8.78-1.34Z"/><path class="cls-1" d="M254.33,123.66a9.19,9.19,0,0,0-5.52,6.86,16.89,16.89,0,0,0-.39,2.66c-.07.9,0,1.81-.06,2.71a17.7,17.7,0,0,1-.37,1.9.86.86,0,0,0,.69,1,.81.81,0,0,0,.31,0,18.12,18.12,0,0,0,7.53-3.19,24.34,24.34,0,0,0,6-5.77c.52-.73-.69-1.67-1.25-1-3.11,3.89-7.61,7.55-12.68,8.27l1.05,1c.13-.61.28-1.22.39-1.83a13.35,13.35,0,0,0,0-2,17.16,17.16,0,0,1,.2-2.48c.42-2.72,1.76-5.69,4.48-6.78.9-.37.53-1.84-.41-1.49Z"/><path class="cls-1" d="M148,45a91.19,91.19,0,0,1-25.8,34.38c-11.53,9.5-25.13,16.14-38.91,21.74-3.83,1.56-7.68,3-11.55,4.49-4.18,1.58-8.41,3.47-12.79,4.36-1.11.23-.64,1.92.46,1.7,4-.82,7.8-2.49,11.59-3.91,3.54-1.33,7.07-2.67,10.58-4.07q10.53-4.12,20.62-9.27C115.36,87.51,127.5,78.64,136.84,67A91.07,91.07,0,0,0,149.49,45.8c.42-1-1-1.89-1.49-.87Z"/><path class="cls-1" d="M47.29,110.51a184.4,184.4,0,0,0,36.3-18.7,187,187,0,0,0,31.16-26.1A172.64,172.64,0,0,0,129.57,48c.62-.85-.79-1.64-1.41-.82A187.18,187.18,0,0,1,67.62,99.38a182.83,182.83,0,0,1-20.77,9.54c-1,.38-.55,2,.44,1.59Z"/><path class="cls-1" d="M141.6,40.07a64.87,64.87,0,0,1-12.72,19.59c-5.37,5.76-11.45,10.78-17.15,16.2-.75.72.37,1.83,1.14,1.14,6-5.39,12.25-10.68,17.72-16.65A64.07,64.07,0,0,0,143.14,40.5C143.52,39.5,142,39.14,141.6,40.07Z"/><path class="cls-1" d="M48.89,100a321.41,321.41,0,0,0,54.86-46.55q7.19-7.59,13.94-15.58c.65-.76-.45-1.88-1.12-1.11C100.79,55,83.79,72,64.68,86.7q-8.1,6.24-16.59,12C47.24,99.22,48,100.59,48.89,100Z"/><path class="cls-1" d="M37.38,97.81c5.89-13,13.32-25.5,22.87-36.2A97.14,97.14,0,0,1,94.07,36.76a80.75,80.75,0,0,1,23-6.11c1-.11,1-1.73,0-1.63C103,30.33,89.33,35.9,77.65,43.93A112,112,0,0,0,47.88,75,147.73,147.73,0,0,0,36,97c-.4.92.94,1.72,1.36.8Z"/><path class="cls-1" d="M114.63,34.79A99.82,99.82,0,0,1,98.39,46.33c-5.63,3.13-11.47,5.81-16.89,9.3A100.29,100.29,0,0,0,56.4,78.75,93.07,93.07,0,0,0,46.14,95.33c-.45.93.92,1.75,1.39.82A101.9,101.9,0,0,1,67.89,68.59a96.57,96.57,0,0,1,13.5-10.78c5.31-3.48,11-6.25,16.59-9.28a84.67,84.67,0,0,0,17.74-12.61c.75-.71-.36-1.79-1.12-1.13Z"/><path class="cls-1" d="M154.22,41.75A150.44,150.44,0,0,0,185.73,81a222.45,222.45,0,0,0,19.2,15,89.8,89.8,0,0,0,17.25,10.11,71.69,71.69,0,0,0,23.43,5.07c1,.06,1-1.53,0-1.63-7.13-.7-14.2-1.76-20.93-4.29A78.55,78.55,0,0,1,207.88,96c-13.29-9.18-25.74-19.47-36.2-31.84a146.79,146.79,0,0,1-16.09-23.25c-.5-.89-1.87-.09-1.37.81Z"/><path class="cls-1" d="M164.18,46.45a177.54,177.54,0,0,0,31.36,27.06,181.54,181.54,0,0,0,36.94,19.21A164.38,164.38,0,0,0,255,99.55c1,.23,1.44-1.3.43-1.55a184.33,184.33,0,0,1-38.72-14.06,178.7,178.7,0,0,1-34.5-22.54,180.84,180.84,0,0,1-16.91-16.07c-.68-.74-1.77.36-1.1,1.09Z"/><path class="cls-1" d="M166.77,36.68c2,6.56,7.89,10.69,13.19,14.49a200.34,200.34,0,0,0,19.85,12.54c3.9,2.15,7.86,4.19,11.92,6,.93.42,1.74-.93.81-1.38a222.35,222.35,0,0,1-25.11-14c-3.91-2.57-7.81-5.21-11.46-8.14-3.31-2.65-6.44-5.76-7.72-9.91-.29-.94-1.77-.54-1.48.41Z"/><path class="cls-1" d="M174.86,32.61c16.29,2.06,28.88,14,40.12,24.94,4,3.87,7.92,7.76,11.93,11.59a.78.78,0,0,0,1.08-.27.79.79,0,0,0,0-.84c-6.59-6.59-13.2-13.24-20.15-19.47C201.76,43.12,195.2,38,187.72,34.64a42.64,42.64,0,0,0-12.9-3.57c-1-.11-1,1.42,0,1.54Z"/><path class="cls-1" d="M188.88,28.33c21.58,4.47,37,21.48,48.51,39.23,3.54,5.46,6.69,11.16,10.14,16.67a.81.81,0,1,0,1.4-.82c-2.82-5.17-5.94-10.21-9.1-15.18a162,162,0,0,0-10-14.21c-6.7-8.38-14.67-15.9-24.1-21.13a55.25,55.25,0,0,0-16.39-6.06c-1-.19-1.4,1.3-.41,1.5Z"/><path class="cls-1" d="M225.74,51.66C238.61,63.1,251.18,75.33,259,91a77.47,77.47,0,0,1,5.34,14.36.86.86,0,0,0,1.11.5.88.88,0,0,0,.54-1c-4.64-17.34-15.39-31.79-28.07-44.17-3.57-3.49-7.29-6.83-11.09-10.09-.73-.64-1.81.42-1.07,1.08Z"/><path class="cls-1" d="M253.66,142.77c-1.51,2.83-2.71,6.57-2.32,9.81.33,2.82,3,3.94,5.43,4.44a38.55,38.55,0,0,1,9.1,2.63,30,30,0,0,1,4.18,2.41c1.45,1,2.7,2.19,4.08,3.27a.81.81,0,0,0,1.15-.11.83.83,0,0,0,0-1.05,25.37,25.37,0,0,0-7.1-5.29,29.9,29.9,0,0,0-8.11-3c-2.06-.43-5.63-.41-6.77-2.55-.71-1.33-.25-3.35,0-4.74a21.13,21.13,0,0,1,1.72-5c.44-.93-.9-1.75-1.39-.82Z"/><path class="cls-1" d="M257.87,150.67c3.65,1,6.4,3.77,9.55,5.7,2.68,1.65,8.22,3,6.58,7.27-.29.75.85,1.39,1.36.79,1.33-1.59.72-3.91-.44-5.4-1.38-1.77-3.56-2.51-5.48-3.51-3.82-2-6.84-5.37-11.13-6.44a.83.83,0,0,0-.44,1.59Z"/><path class="cls-1" d="M270.55,149.74c1.65.55,2.17,2.54,2.39,4.08a28.14,28.14,0,0,0,.58,3.15c.13.54.27,1.08.35,1.63s.09,1.18.18,1.77c.12.81,1.42.76,1.58,0a8.9,8.9,0,0,0-.41-3.87c-.29-1.19-.43-2.38-.66-3.58-.38-2-1.4-4.3-3.59-4.73a.8.8,0,0,0-1,.56.82.82,0,0,0,.57,1Z"/><path class="cls-1" d="M273.61,164.74A6.49,6.49,0,0,1,275.5,169a2.15,2.15,0,0,1-1.79,2.47,2.06,2.06,0,0,1-.82,0c-3.53-.22-5.51-3.62-8.4-5.19a9.75,9.75,0,0,0-4.24-1,12.48,12.48,0,0,1-4.34-.53c-1.64-.73-1.87-2.62-2-4.21a5.68,5.68,0,0,1,.85-4.39c.6-.78-.62-1.54-1.28-1a5,5,0,0,0-1.46,3.9,13.57,13.57,0,0,0,.71,4.6c1.13,3,4.13,3.26,6.93,3.37a8.48,8.48,0,0,1,4.77,1.3c1.47,1,2.68,2.33,4.13,3.35,2,1.4,5.66,2.6,7.67.57,2.29-2.31.71-6.79-1.44-8.59a.8.8,0,0,0-1.13,1.13Z"/><path class="cls-1" d="M257.33,166.06c-11.63,12.11-14.76,29.79-15.33,46-.19,5.32-.14,10.66-.1,16a.87.87,0,0,0,.9.84.88.88,0,0,0,.8-.61c1.23-3,4.57-4.43,7.42-5.48a29,29,0,0,1,4.35-1.49c1.61-.33,3.29,0,4.9-.34,1.13-.25.66-2-.47-1.74-1.83.42-3.74-.06-5.57.53s-3.35,1.17-5,1.84c-3.08,1.27-6,3-7.32,6.22l1.7.23c-.21-16.81-.34-34.5,7.38-49.9a50.46,50.46,0,0,1,7.42-10.94c.65-.74-.4-1.82-1.1-1.1Z"/><path class="cls-1" d="M261.16,221.75a136.8,136.8,0,0,1-2.41-13.92,80.43,80.43,0,0,1,0-13.53,77.53,77.53,0,0,1,2.34-13.53q.84-3.24,2-6.41c.8-2.26,1.94-4.42,2.65-6.7a.83.83,0,0,0-.61-1,.81.81,0,0,0-.88.36,35,35,0,0,0-2.72,6.44c-.82,2.24-1.53,4.51-2.13,6.83a80,80,0,0,0-2.42,28,59.28,59.28,0,0,0,2.58,13.9.82.82,0,0,0,1,.52.81.81,0,0,0,.54-.95Z"/><path class="cls-1" d="M266.69,170.78a53.3,53.3,0,0,0-2.18,25.34A86.35,86.35,0,0,0,267.86,209c1.26,4,2.7,8.43,2.4,12.73a12.74,12.74,0,0,1-2.23,6.64l1.71.47c0-2.57-.26-5.79-1.87-7.89a5.72,5.72,0,0,0-3.89-2.35c-1.94-.16-3.34,1.18-4.22,2.77-.57,1,1,2,1.59.93.7-1.27,1.74-2.31,3.26-1.69a4.56,4.56,0,0,1,2.45,2.66,16.45,16.45,0,0,1,.84,5.57.92.92,0,0,0,1,.88.94.94,0,0,0,.74-.42c3.62-4.79,2.61-11.45,1.17-16.8-1.15-4.31-2.76-8.49-3.79-12.84a52.34,52.34,0,0,1-1.37-13.37,56,56,0,0,1,2.59-15.09c.3-1-1.2-1.37-1.52-.42Z"/><path class="cls-1" d="M259.71,221.83a5.26,5.26,0,0,1-1.64,1.25,14.5,14.5,0,0,0-2,1.47c-1.17,1-2.69,2.57-1.93,4.26s2.95,1.29,4.26.7a6.05,6.05,0,0,0,3-3.2c.3-.72.48-1.49.73-2.24a6.67,6.67,0,0,1,1-1.88c.47-.67-.45-1.55-1.12-1.11-1.13.73-1.53,2.15-1.89,3.38a5.72,5.72,0,0,1-1.62,2.93,4.06,4.06,0,0,1-1.41.74c-.33.09-1,.25-1.32,0-.12-.09-.13-.21-.11-.4a2,2,0,0,1,.33-.66,9.74,9.74,0,0,1,1.49-1.52,13.61,13.61,0,0,1,1.82-1.29,5.12,5.12,0,0,0,1.79-1.64.83.83,0,0,0-.3-1.13.82.82,0,0,0-1.12.3Z"/><path class="cls-1" d="M253.27,221.71a21.81,21.81,0,0,0,0,3.13,10.9,10.9,0,0,0,.2,1.61,5.07,5.07,0,0,0,.42,1.66.79.79,0,0,0,1.1.23.81.81,0,0,0,.37-.63,8.51,8.51,0,0,0-.26-1.59c-.07-.46-.14-.93-.19-1.39a27.38,27.38,0,0,1-.14-3,.78.78,0,1,0-1.55,0Z"/><path class="cls-1" d="M270.34,172.92c-.21,4.24,1.14,8.52,2.68,12.43a102.42,102.42,0,0,0,5,10.49c3.39,6.44,7.37,12.65,10.25,19.35.82,1.9,2.09,4.59,1.38,6.7l1.86.25a5.57,5.57,0,0,0-3-5.45c-2-1.13-4.29-1.59-6.39-.32s-3,3.85-3.74,5.93a6.57,6.57,0,0,1-2.49,3.56c-1.34.82-3.73.6-3.81-1.38a.86.86,0,1,0-1.72,0h0a3.88,3.88,0,0,0,4,3.77,4.27,4.27,0,0,0,.94-.14c2.66-.63,4.11-3.11,4.95-5.49s2.23-5.52,5.28-5.17a6.51,6.51,0,0,1,2.77,1.28,3.64,3.64,0,0,1,1.37,3.41c-.06,1.1,1.53,1.23,1.85.25.64-1.91,0-4.1-.68-5.91a64.87,64.87,0,0,0-4-8.42c-3.76-7-7.91-13.78-11.1-21.06-1.94-4.41-3.65-9.21-3.71-14.08a.8.8,0,0,0-.8-.79.78.78,0,0,0-.78.79Z"/><path class="cls-1" d="M280.33,222a6.67,6.67,0,0,1,3,2.94,10.86,10.86,0,0,1,1.4,4.62c.1.71,1,.78,1.47.39a20.32,20.32,0,0,0,3.08-3.53,17.56,17.56,0,0,0,1.19-2,6.05,6.05,0,0,0,.79-2.25.87.87,0,0,0-.89-.85.84.84,0,0,0-.72.41c-.31.62-.47,1.3-.78,1.93a17.55,17.55,0,0,1-1.11,1.86,18.38,18.38,0,0,1-2.8,3.17l1.47.39a11.88,11.88,0,0,0-1.77-5.33c-1-1.38-2.17-2.93-3.89-3.32a.8.8,0,1,0-.43,1.55h0Z"/><path class="cls-1" d="M248.44,222.7c-6.93,19.59-1.35,40.41,2.39,60,1.9,10,3.35,20.17,2.65,30.39a82.28,82.28,0,0,1-22.63,51c-.81.84.47,2.12,1.27,1.28a84.34,84.34,0,0,0,22.68-47.16c2.74-20.6-4-40.36-6.83-60.53-1.65-11.59-1.69-23.33,2-34.54.33-1-1.2-1.39-1.54-.43Z"/><path class="cls-1" d="M231.49,366.2c3,.56,6,.94,9,1.62s5.93,1.62,8.88,2.53a19.3,19.3,0,0,0,8.15,1.12A16.46,16.46,0,0,0,265,368c.9-.69.12-2.19-.91-1.57-2.42,1.45-4.64,3.13-7.57,3.28s-5.54-.79-8.18-1.63c-5.31-1.69-11-3.24-16.58-3.49-.92,0-1.14,1.44-.22,1.61Z"/><path class="cls-1" d="M257.8,228.56c-1.53,8.88-2.52,18-1.61,27s3.89,17.41,5.67,26.15c3.64,17.76,4.18,36,3.73,54-.25,10.3-.82,20.59-1.31,30.89-.06,1.16,1.75,1.16,1.81,0,.88-18,2-36.05,1.18-54.08a206,206,0,0,0-2.78-26.35c-.78-4.43-1.74-8.81-2.86-13.17s-2.3-8.58-3.08-13c-1.85-10.32-.77-20.81.85-31.08.17-1-1.42-1.5-1.6-.44Z"/><path class="cls-1" d="M245.85,233.48c-3.09,13.49-2.21,27.75-.83,41.4s3.66,27.23,4.18,40.95a90.5,90.5,0,0,1-1.33,20.59c-.21,1.09,1.44,1.57,1.68.47,2.69-12.35,1.44-25.38,0-37.81-1.55-13.94-3.71-27.87-4-41.92a118.57,118.57,0,0,1,1.76-23.27c.18-1-1.29-1.41-1.52-.41Z"/><path class="cls-1" d="M272.8,227.27c.86,7.7-3.4,14.65-5.94,21.63a78.71,78.71,0,0,0-4.58,22.3,91.68,91.68,0,0,0,.19,13.36c.09,1.1,1.8,1.1,1.71,0a86.13,86.13,0,0,1,1.05-23.23,75.47,75.47,0,0,1,3-11.27c1.25-3.57,2.87-7,4.19-10.52,1.46-3.91,2.48-8,2-12.22-.12-1-1.77-1.06-1.65,0Z"/><path class="cls-1" d="M278.09,224.33a82.85,82.85,0,0,1,1.66,23.51c-.6,7.87-2.65,15.41-4.87,23a141.45,141.45,0,0,0-5,22.57c-.91,7.27-1.2,14.58-1.92,21.86s-1.73,14.65-2.17,22c-.07,1.12,1.63,1.1,1.72,0,.54-6.67,1.33-13.33,2-20,.73-7.15,1-14.33,1.81-21.47a132.29,132.29,0,0,1,4.84-23.15c2.16-7.38,4.29-14.74,5.11-22.41a79.76,79.76,0,0,0-1.56-26.32c-.25-1-1.82-.6-1.6.44Z"/><path class="cls-1" d="M277.74,260.05c1.71,28,8,55.41,12.26,83.11,1.19,7.79,2.19,15.62,2.87,23.48l.27-.65a6.85,6.85,0,0,1-5.61,2.58c-3-.14-5.48-2-7.56-4.1-3.83-3.79-8.26-9.22-14.37-7.58a.88.88,0,0,0,.47,1.69c4.93-1.15,8.7,3.14,11.76,6.31,2.77,2.87,6,5.58,10.24,5.51a8.16,8.16,0,0,0,5.07-1.81,8,8,0,0,0,1.15-1.18c.57-.71.33-1.47.25-2.34-.43-4.73-1-9.45-1.62-14.16-2.55-18.93-6.51-37.64-9.5-56.5-1.81-11.4-3.21-22.85-4.06-34.36-.07-1-1.69-1.05-1.62,0Z"/></g></g></g></g></svg>