<svg xmlns="http://www.w3.org/2000/svg" viewBox="0 0 79.61 55"><defs><style>.cls-1{fill:#020202}</style></defs><g id="Layer_2" data-name="Layer 2"><g id="OBJECTS"><path class="cls-1" d="M35.19 27.9a4.91 4.91 0 01-1-.71c-.46-.44-.73-1-1.23-1.43a5.4 5.4 0 00-3.51-1.24c-2.68 0-4.35 2.31-5.53 4.45-.85 1.55-1.39 4.15-3.37 4.64a6.6 6.6 0 01-4.26-.85c-1.55-.75-3.05-1.59-4.57-2.4L.91 24.68a.35.35 0 00-.52.21 18.37 18.37 0 001.74 11.34 15 15 0 008.16 7.14 13.13 13.13 0 006.21.7l-.27-.64c-3.85 3.47-9.08 4.74-14 5.92a.39.39 0 00-.17.65c2.4 2.68 6.21 2.56 9.5 2.32l-.2-.71a6.53 6.53 0 00-2.44 2.61.38.38 0 00.23.55c3 .87 5.82-1 8.57-1.86 3-1 6.32-.33 9.29-1.48a10.16 10.16 0 005.21-4.69A15.18 15.18 0 0033.56 38c-.09-.93-.23-1.85-.38-2.77a15.67 15.67 0 01-.37-3c0-1.36.85-3.46 2.38-3.71.55-.08.32-.94-.24-.84A3.73 3.73 0 0032.54 30a6.63 6.63 0 00-.38 4c.55 3.36 1.22 6.85.28 10.22a9.92 9.92 0 01-4.39 5.92c-2.68 1.59-5.75 1.13-8.7 1.63-3.3.56-6.52 3.24-10 2.24l.23.56a5.73 5.73 0 012.17-2.33.39.39 0 00-.19-.72c-3.08.23-6.69.42-8.95-2.1l-.17.65c5.08-1.21 10.33-2.55 14.3-6.14.23-.2.07-.68-.26-.64a13.33 13.33 0 01-9.84-2.77 15.19 15.19 0 01-5.45-9.08 18.05 18.05 0 01-.13-6.39l-.53.21 9.57 5 4.7 2.47a12.2 12.2 0 004.2 1.61 3.86 3.86 0 002.75-.59 5.55 5.55 0 001.58-2.18c1-2.1 2-4.71 4.16-5.9a4.66 4.66 0 014.7.32 4.53 4.53 0 011 .87 6.56 6.56 0 00.57.71 5.93 5.93 0 001.17.74c.27.14.51-.26.24-.41z" transform="translate(-.15)"/><path class="cls-1" d="M30.07 28a.35.35 0 00.2-.05.42.42 0 00.17-.1.45.45 0 00.11-.17.48.48 0 000-.2v-.14a.48.48 0 00-.13-.23l-.09-.11a.59.59 0 00-.26-.07.35.35 0 00-.2.05.32.32 0 00-.17.11.36.36 0 00-.11.16.5.5 0 00-.05.21v.13a.58.58 0 00.14.24l.1.08a.64.64 0 00.27.07zm14.93.31a6.51 6.51 0 001-.62c.46-.34.71-.87 1.14-1.25a4.86 4.86 0 014.25-1.15c2.54.58 3.9 3.48 4.88 5.64.78 1.71 1.7 3.34 3.78 3.44a8.41 8.41 0 004-1c1.55-.74 3.06-1.59 4.58-2.39l10.78-5.67-.53-.21c1.12 7.27-2.32 15.14-9.58 17.64a12.74 12.74 0 01-5.84.6c-.32 0-.49.44-.26.64 4 3.59 9.22 4.93 14.3 6.14l-.17-.65c-2.26 2.52-5.87 2.33-9 2.1a.39.39 0 00-.19.72 5.73 5.73 0 012.17 2.33l.23-.56c-3.07.89-5.94-1.17-8.79-2s-6.29-.13-9.15-1.49a9.75 9.75 0 01-4.87-5.51c-1.13-3.13-.76-6.56-.2-9.76.29-1.66.66-3.31 0-4.94-.45-1.14-1.29-2.44-2.59-2.68-.56-.1-.79.76-.24.84 1.32.21 2.11 1.86 2.32 3 .31 1.68-.32 3.53-.55 5.2-.41 3.06-.48 6.26.78 9.14a10.35 10.35 0 004.83 5.19c2.88 1.4 6 .79 9.08 1.53s6.21 3.12 9.56 2.15a.38.38 0 00.23-.55 6.53 6.53 0 00-2.44-2.61l-.2.71c3.29.24 7.1.36 9.5-2.32a.39.39 0 00-.17-.65c-4.91-1.18-10.13-2.45-14-5.92l-.27.64a14 14 0 0010.32-3 15.89 15.89 0 005.7-9.64 19.07 19.07 0 00.09-6.57.35.35 0 00-.52-.21l-9.56 5-4.7 2.49a9.81 9.81 0 01-4.56 1.49c-2.31 0-3-2.32-3.8-4.05-1-2.08-2.52-4.51-5-5a5.35 5.35 0 00-4.06.84A6.87 6.87 0 0045.94 27a3.9 3.9 0 01-1.22.91c-.27.15 0 .55.24.41z" transform="translate(-.15)"/><path class="cls-1" d="M49.84 28a.35.35 0 00.2-.05.37.37 0 00.17-.1.45.45 0 00.11-.17.49.49 0 000-.2v-.14a.49.49 0 00-.14-.23l-.1-.09a.64.64 0 00-.27-.07.35.35 0 00-.2.05.51.51 0 00-.28.27.49.49 0 000 .21v.13a.56.56 0 00.13.24l.11.08a.59.59 0 00.26.07zm-34.6-13.35a47.41 47.41 0 014.41 3.44c.68.6 1.35 1.21 2 1.84s1.28 1.36 2 2c.18.15.51-.05.35-.27a14.54 14.54 0 00-1.87-2.05c-.69-.66-1.4-1.31-2.13-1.93a46.55 46.55 0 00-4.53-3.36c-.23-.15-.44.22-.22.37zM25 6.47q1.32 3.27 2.75 6.53c.48 1.08 1 2.16 1.46 3.23a20.83 20.83 0 001.71 3.24c.11.15.36.07.3-.12a22.07 22.07 0 00-1.36-3.21l-1.5-3.22c-1-2.19-2-4.39-2.92-6.6-.11-.26-.57-.07-.46.19zm37.61 7.81a47.8 47.8 0 00-4.53 3.36c-.71.6-1.4 1.23-2.07 1.88a14.23 14.23 0 00-1.93 2.1c-.15.22.17.42.35.27.69-.59 1.3-1.27 1.94-1.9s1.35-1.29 2.05-1.9a48.77 48.77 0 014.41-3.44c.23-.15 0-.52-.22-.37zm-9.98-8q-1.41 3.32-2.92 6.6c-.49 1.08-1 2.15-1.5 3.22a23.23 23.23 0 00-1.36 3.21c-.06.18.2.27.3.12a20 20 0 001.71-3.24c.5-1.07 1-2.15 1.47-3.23q1.43-3.23 2.76-6.49c.11-.26-.34-.45-.46-.19zm-14-6.05c0 3.11-.08 6.22-.1 9.34s-.11 6.24.18 9.34a.16.16 0 00.32 0c.29-3.1.19-6.24.18-9.34s-.06-6.23-.11-9.34a.24.24 0 00-.47 0z" transform="translate(-.15)"/></g></g></svg>