<svg xmlns="http://www.w3.org/2000/svg" viewBox="0 0 277.12 46.72"><defs><style>.cls-1{fill:#24273b;}</style></defs><g id="Layer_2" data-name="Layer 2"><g id="OBJECTS"><path class="cls-1" d="M134.31,45.25l-.4-.42c-.26-.27-.63-.72-1.16-1.2a22.81,22.81,0,0,0-5.08-3.53,34.81,34.81,0,0,0-9.22-3c-3.71-.72-8-1.19-12.67-1.68a78.2,78.2,0,0,0-15.08,0,74.82,74.82,0,0,0-8.19,1.13c-2.78.55-5.56,1.27-8.45,1.93a49.76,49.76,0,0,1-9,1.26,28.74,28.74,0,0,1-9.43-1.14,14.89,14.89,0,0,1-4.44-2.13,9.54,9.54,0,0,1-3.27-3.91,7.13,7.13,0,0,1-.37-5.21c.08-.19.13-.36.22-.57l.35-.64a4.11,4.11,0,0,1,.4-.57A3.08,3.08,0,0,1,49,25a6.64,6.64,0,0,1,2.18-1.48,8.58,8.58,0,0,1,5-.5,8,8,0,0,1,2.38,1c.18.12.35.25.52.38l.29.22.21.21c.14.14.28.26.42.42l.42.51a9.63,9.63,0,0,1,1.77,4.65,10.84,10.84,0,0,1-.51,4.95,10.43,10.43,0,0,1-1.19,2.29,11.12,11.12,0,0,1-1.64,1.84A13.18,13.18,0,0,1,54.65,42a18.41,18.41,0,0,1-9.29.85,35.66,35.66,0,0,1-8.47-2.58c-2.64-1.14-5.13-2.37-7.58-3.47A39.14,39.14,0,0,0,22,34.29a39.29,39.29,0,0,0-7.07-.89,24.37,24.37,0,0,0-6.44.48,10,10,0,0,0-4.87,2.55,7.18,7.18,0,0,0-2,4.22,4.35,4.35,0,0,0,1.22,3.56A4.94,4.94,0,0,0,5.7,45.53,3.5,3.5,0,0,0,7.94,45a2.6,2.6,0,0,0,.36-.27c.09-.09.22-.19.26-.24s.07-.13.07-.12,0,.05.14.16.15,0,.16,0,0,0,.09-.13a.34.34,0,0,0-.07-.3l0,0a.43.43,0,0,1,.08.59.42.42,0,0,1-.59.09l-.1-.09a.55.55,0,0,1-.11-.5.66.66,0,0,1,.33-.39.72.72,0,0,1,.64,0,.75.75,0,0,1,.39.71,1.29,1.29,0,0,1-.21.59,2.54,2.54,0,0,1-.36.42,2.14,2.14,0,0,1-.45.39,5.43,5.43,0,0,1-6.65-.62A5.76,5.76,0,0,1,0,40.56a8.46,8.46,0,0,1,2.3-5.36A11.68,11.68,0,0,1,8,32a24.76,24.76,0,0,1,7-.66,29,29,0,0,1,7.45,1.24,55.18,55.18,0,0,1,7.43,3c4.92,2.22,10,5,15.7,5.68a16.23,16.23,0,0,0,8.36-1A12.91,12.91,0,0,0,57.53,38,12.29,12.29,0,0,0,59,36.47a9.39,9.39,0,0,0,1-1.76,9.14,9.14,0,0,0,.85-4.18,7.08,7.08,0,0,0-1.42-4c-1.67-2.42-5.19-2.83-7.7-1.58a5.55,5.55,0,0,0-1.65,1.21,4,4,0,0,0-.59.79l-.2.39a5.35,5.35,0,0,0,.18,4.48c1.15,2.57,3.86,4.17,6.66,5a23.32,23.32,0,0,0,8.76.76c2.94-.24,5.85-.74,8.74-1.2s5.8-.85,8.63-1.18,5.6-.71,8.3-.94A93.11,93.11,0,0,1,105.91,34a113.19,113.19,0,0,1,12.83,1.68A46.07,46.07,0,0,1,124,37.13a29,29,0,0,1,4.24,1.9A21.55,21.55,0,0,1,133.44,43c.54.53.86,1,1.12,1.26l.38.44a.43.43,0,0,1-.05.6A.42.42,0,0,1,134.31,45.25Z"/><path class="cls-1" d="M142.9,44.63l.49-.24,1.39-.72c1.2-.64,3-1.61,5.09-3a63.15,63.15,0,0,0,7.3-5.55A43,43,0,0,0,165,26.29a21.46,21.46,0,0,0,2.7-6.08A13.27,13.27,0,0,0,168,18.5a16.29,16.29,0,0,0,.16-1.74,15,15,0,0,0-.33-3.58,11.88,11.88,0,0,0-3.46-6.43A11.78,11.78,0,0,0,157.5,4a22.5,22.5,0,0,0-3.94,0,23.36,23.36,0,0,0-3.95.63,16.32,16.32,0,0,0-7.16,3.69c-.24.23-.52.47-.72.7s-.5.53-.7.78a15.47,15.47,0,0,0-1.18,1.66,14.37,14.37,0,0,0-1.59,3.79,12.7,12.7,0,0,0-.36,4.07,11.44,11.44,0,0,0,.33,2,2.18,2.18,0,0,0,.34.7c.16.15.16.18.31.17s.14,0,.26-.24a2.3,2.3,0,0,0,.25-.79c0-.14,0-.32,0-.44V20.1c0-.37,0-.74,0-1.09a19.54,19.54,0,0,0-.67-4.21,17.83,17.83,0,0,0-1.53-4,19.1,19.1,0,0,0-2.43-3.41,18.23,18.23,0,0,0-3-2.78,9.49,9.49,0,0,0-.83-.58l-.41-.28-.42-.24a16.25,16.25,0,0,0-1.8-.87A14.47,14.47,0,0,0,120.52,2a11.68,11.68,0,0,0-6.6,3.53,11.68,11.68,0,0,0-2.82,6.65c-.51,4.88,1.37,9.43,3.1,13.25a36.84,36.84,0,0,0,6.56,9.66,37.81,37.81,0,0,0,6.93,5.84,37.13,37.13,0,0,0,5.14,2.83l1.93.81h0a.43.43,0,0,1,.23.56.44.44,0,0,1-.52.24l-2-.67A35.69,35.69,0,0,1,127,42.11a37.52,37.52,0,0,1-7.5-5.77,38.09,38.09,0,0,1-7.13-10,29.83,29.83,0,0,1-2.25-6.7,26.63,26.63,0,0,1-.48-3.72,20.22,20.22,0,0,1,.1-3.88,13.65,13.65,0,0,1,3.13-7.45,11.76,11.76,0,0,1,3.31-2.67,13.58,13.58,0,0,1,4-1.52A16.38,16.38,0,0,1,129,.89a15.33,15.33,0,0,1,7.19,5.42,26.29,26.29,0,0,1,3.73,8.17,26.63,26.63,0,0,1,.82,4.45c.05.39.06.75.08,1.12l0,.55a3.59,3.59,0,0,1,0,.66,3.51,3.51,0,0,1-.35,1.31A1.83,1.83,0,0,1,139,23.63a1.63,1.63,0,0,1-.93-.13,2.1,2.1,0,0,1-.7-.52,3.42,3.42,0,0,1-.69-1.24,13,13,0,0,1-.48-2.33,13.77,13.77,0,0,1,.33-4.66,16,16,0,0,1,1.74-4.29,17.23,17.23,0,0,1,1.33-1.91c.26-.32.5-.59.74-.85s.55-.55.83-.83a20.3,20.3,0,0,1,16.6-5,13.34,13.34,0,0,1,7.58,3.93A14.94,14.94,0,0,1,169,12.94a17.53,17.53,0,0,1-.12,7.57A22.93,22.93,0,0,1,166.18,27a39.46,39.46,0,0,1-8.08,9.15,56,56,0,0,1-7.58,5.52,52.2,52.2,0,0,1-5.32,2.84c-.63.3-1.12.51-1.44.65l-.5.22a.44.44,0,0,1-.56-.22A.43.43,0,0,1,142.9,44.63Z"/><path class="cls-1" d="M142.18,44.68l.38-.44c.26-.28.59-.73,1.12-1.26A21.75,21.75,0,0,1,148.89,39a29,29,0,0,1,4.24-1.9,46.26,46.26,0,0,1,5.26-1.44A112.69,112.69,0,0,1,171.21,34a93.1,93.1,0,0,1,15.32.21c2.71.23,5.47.61,8.3.94s5.73.73,8.63,1.18,5.8,1,8.74,1.2a23.32,23.32,0,0,0,8.76-.76c2.8-.81,5.51-2.41,6.66-5a5.49,5.49,0,0,0,.37-3.94c-.06-.18-.12-.39-.18-.54l-.21-.39a4,4,0,0,0-.59-.79,5.42,5.42,0,0,0-1.65-1.21c-2.51-1.25-6-.84-7.7,1.58a7.08,7.08,0,0,0-1.42,4,9,9,0,0,0,.86,4.18,8.42,8.42,0,0,0,1,1.76A11.56,11.56,0,0,0,219.59,38a13.06,13.06,0,0,0,3.58,2.21,16.27,16.27,0,0,0,8.37,1c5.69-.72,10.77-3.46,15.69-5.68a55.71,55.71,0,0,1,7.43-3,29,29,0,0,1,7.45-1.24,24.83,24.83,0,0,1,7,.66,11.77,11.77,0,0,1,5.71,3.2,8.57,8.57,0,0,1,2.3,5.36,5.83,5.83,0,0,1-1.87,4.68,5.45,5.45,0,0,1-6.66.62,2.08,2.08,0,0,1-.44-.39,2.18,2.18,0,0,1-.37-.42,1.29,1.29,0,0,1-.21-.59.68.68,0,0,1,1-.67.68.68,0,0,1,.32.39.55.55,0,0,1-.11.5l-.1.09a.42.42,0,0,1-.5-.68l-.05,0a.35.35,0,0,0-.06.3c0,.11.07.12.08.13s0,0,.16,0,.12-.14.14-.16a.91.91,0,0,0,.08.12,2.25,2.25,0,0,0,.26.24,2,2,0,0,0,.35.27,3.5,3.5,0,0,0,2.24.5,4.94,4.94,0,0,0,2.88-1.32,4.35,4.35,0,0,0,1.22-3.56,7.07,7.07,0,0,0-2-4.22,9.94,9.94,0,0,0-4.87-2.55,24.37,24.37,0,0,0-6.44-.48,36,36,0,0,0-14.38,3.41c-2.45,1.1-4.94,2.33-7.57,3.47a35.74,35.74,0,0,1-8.48,2.58,18.36,18.36,0,0,1-9.28-.85,13.07,13.07,0,0,1-4.2-2.51,11.19,11.19,0,0,1-1.65-1.84,10,10,0,0,1-1.18-2.29,10.84,10.84,0,0,1-.52-4.95,9.54,9.54,0,0,1,1.78-4.65l.42-.51c.14-.16.28-.28.42-.42l.21-.21.28-.22c.18-.13.34-.26.53-.38a7.93,7.93,0,0,1,2.37-1,8.58,8.58,0,0,1,5.05.5A6.68,6.68,0,0,1,228.18,25a3.57,3.57,0,0,1,.44.5,3.41,3.41,0,0,1,.4.57l.36.64c.09.21.14.38.21.57a7.18,7.18,0,0,1-.36,5.21A9.62,9.62,0,0,1,226,36.43a15.06,15.06,0,0,1-4.45,2.13,28.68,28.68,0,0,1-9.43,1.14,49.76,49.76,0,0,1-9-1.26c-2.88-.66-5.67-1.38-8.44-1.93a75.16,75.16,0,0,0-8.19-1.13,78.3,78.3,0,0,0-15.09,0c-4.67.49-9,1-12.67,1.68a34.73,34.73,0,0,0-9.21,3,22.81,22.81,0,0,0-5.08,3.53c-.53.48-.9.93-1.17,1.2l-.4.42a.41.41,0,0,1-.59,0A.42.42,0,0,1,142.18,44.68Z"/></g></g></svg>