<svg xmlns="http://www.w3.org/2000/svg" viewBox="0 0 262.17 28.54"><defs><style>.cls-1{fill:#24273b;}</style></defs><g id="Layer_2" data-name="Layer 2"><g id="OBJECTS"><path class="cls-1" d="M130.34,28.48a15.05,15.05,0,0,1-4.47-2.93A44.2,44.2,0,0,1,122,21.91a24.8,24.8,0,0,1-3.23-4.25,18.09,18.09,0,0,1-1.21-2.41,12.49,12.49,0,0,1-.81-2.58,10.47,10.47,0,0,1-.18-2.75,6.17,6.17,0,0,1,.87-2.73,5,5,0,0,1,2.24-1.95,4.24,4.24,0,0,1,1.48-.33,5.27,5.27,0,0,1,1.5.16,8.76,8.76,0,0,1,2.57,1.19A16.89,16.89,0,0,1,127.37,8,21.59,21.59,0,0,1,130.86,12h-.75A28.36,28.36,0,0,1,133.6,8a12.22,12.22,0,0,1,2.13-1.77,6.73,6.73,0,0,1,2.67-1,5.77,5.77,0,0,1,2.87.38,5.19,5.19,0,0,1,2.31,1.75,4.55,4.55,0,0,1,.88,2.75,12.57,12.57,0,0,1-.37,2.72,23.93,23.93,0,0,1-1.89,5.09,21.62,21.62,0,0,1-3.07,4.43c-.29.34-.58.68-.88,1l-.23.25-.14.14-.13.11-.49.45c-.67.6-1.35,1.17-2,1.72s-1.43,1.08-2.18,1.58a10.74,10.74,0,0,1-1.2.66,2.26,2.26,0,0,1-1.48.21Zm.18-.47a1.88,1.88,0,0,0,1.07-.25,8.9,8.9,0,0,0,1.1-.66,19.67,19.67,0,0,0,2-1.66c.64-.59,1.27-1.21,1.87-1.84l.45-.47.11-.12,0,0,.05-.06.21-.26.82-1c1.07-1.37,2.06-2.79,3-4.24a16.71,16.71,0,0,0,1.23-2.28,14.5,14.5,0,0,0,.8-2.44,10.1,10.1,0,0,0,.3-2.53A3.55,3.55,0,0,0,142.8,8a4.27,4.27,0,0,0-1.91-1.34,4.88,4.88,0,0,0-2.34-.21,8.18,8.18,0,0,0-2.32.71,7.77,7.77,0,0,0-2.12,1.37,18,18,0,0,0-3.25,4.06l-.33.55-.41-.54a26.17,26.17,0,0,0-3.47-3.81,15.71,15.71,0,0,0-2-1.55,6.33,6.33,0,0,0-2.22-.94,4.28,4.28,0,0,0-1.12,0,3.66,3.66,0,0,0-1.07.28,4.54,4.54,0,0,0-1.75,1.4,5.19,5.19,0,0,0-1,2.16,6.32,6.32,0,0,0,0,2.49,13.89,13.89,0,0,0,2,4.73,27.86,27.86,0,0,0,3.23,4.05c1.2,1.26,2.44,2.49,3.7,3.72a11.86,11.86,0,0,0,4.18,3Z"/><path class="cls-1" d="M107.08,22.77a8.47,8.47,0,0,1-2.26-1.42,15.8,15.8,0,0,1-1.92-1.75,11.76,11.76,0,0,1-1.57-2.12,9.09,9.09,0,0,1-1-2.5,7.08,7.08,0,0,1-.13-1.4,3.18,3.18,0,0,1,.39-1.48A2.49,2.49,0,0,1,101.8,11a2.45,2.45,0,0,1,.82-.17,2.69,2.69,0,0,1,.83.11,4.89,4.89,0,0,1,1.34.64,9.15,9.15,0,0,1,1.07.86,9.67,9.67,0,0,1,1.71,2.06h-.76a20.92,20.92,0,0,1,1.77-2,6.88,6.88,0,0,1,1-1A2.91,2.91,0,0,1,111,11a3.12,3.12,0,0,1,1.53.23,2.82,2.82,0,0,1,1.23,1,2.48,2.48,0,0,1,.45,1.48,7.18,7.18,0,0,1-.19,1.38c-.11.45-.25.87-.4,1.3s-.3.86-.49,1.27a6.45,6.45,0,0,1-.67,1.17,10.6,10.6,0,0,1-.84,1l-.45.48-.12.12-.08.07-.06.06-.26.21c-.34.28-.68.55-1,.81s-.72.5-1.11.74c-.19.11-.39.22-.61.32a1.25,1.25,0,0,1-.82.1Zm.17-.47a1.85,1.85,0,0,0,.93-.45,8.11,8.11,0,0,0,.93-.84c.3-.29.59-.6.87-.92l.21-.24,0-.05s0-.05,0,0l0,0,.09-.12.38-.51,1.45-2a8.58,8.58,0,0,0,.63-1.05,6.24,6.24,0,0,0,.39-1.15,4.55,4.55,0,0,0,.12-1.18,1.45,1.45,0,0,0-.34-.92,1.9,1.9,0,0,0-.83-.55,2.24,2.24,0,0,0-1-.06,5.43,5.43,0,0,0-1,.29,3,3,0,0,0-1,.56,7.49,7.49,0,0,0-1.51,2l-.3.57-.45-.56a14.19,14.19,0,0,0-1.68-1.78,4.21,4.21,0,0,0-2-1.12,1.68,1.68,0,0,0-.86.13,2.6,2.6,0,0,0-.73.55,2.32,2.32,0,0,0-.58,2,6.05,6.05,0,0,0,.94,2.24A16,16,0,0,0,103.53,19l1.76,1.83a5.08,5.08,0,0,0,2,1.46Z"/><path class="cls-1" d="M152.87,23.8a8.58,8.58,0,0,1-2.25-1.42,15.09,15.09,0,0,1-1.92-1.75,11.35,11.35,0,0,1-1.58-2.12,8.76,8.76,0,0,1-1-2.5,6.39,6.39,0,0,1-.14-1.4,3.18,3.18,0,0,1,.39-1.48A2.53,2.53,0,0,1,147.59,12a2.24,2.24,0,0,1,.83-.17,2.73,2.73,0,0,1,.83.11,4.56,4.56,0,0,1,1.33.64,7.6,7.6,0,0,1,1.07.86,9.38,9.38,0,0,1,1.71,2.06h-.75a18.61,18.61,0,0,1,1.77-2,6.33,6.33,0,0,1,1-1,3,3,0,0,1,1.39-.53,3.16,3.16,0,0,1,1.54.23,2.85,2.85,0,0,1,1.22,1,2.42,2.42,0,0,1,.46,1.48,7.16,7.16,0,0,1-.2,1.38c-.11.45-.25.87-.4,1.3s-.3.86-.49,1.27a7,7,0,0,1-.66,1.17c-.26.36-.55.71-.84,1l-.46.48-.11.11-.08.08-.07.06-.25.21q-.51.42-1.05.81c-.35.26-.72.5-1.1.74-.2.11-.4.22-.61.32a1.29,1.29,0,0,1-.83.1Zm.18-.48a1.72,1.72,0,0,0,.92-.44,8.2,8.2,0,0,0,.94-.84c.29-.29.58-.6.86-.92l.21-.24.05-.06s0,0,0,0l0,0,.09-.12.38-.51,1.45-2a7.49,7.49,0,0,0,.63-1.05,5.57,5.57,0,0,0,.39-1.15,4.18,4.18,0,0,0,.13-1.18,1.46,1.46,0,0,0-.35-.92,1.84,1.84,0,0,0-.83-.55,2.24,2.24,0,0,0-1-.06,5.43,5.43,0,0,0-1,.29,3.06,3.06,0,0,0-1,.56,7.09,7.09,0,0,0-1.51,2l-.31.57-.45-.56a12.87,12.87,0,0,0-1.68-1.78,4.12,4.12,0,0,0-2-1.12,1.58,1.58,0,0,0-.44,0,1.72,1.72,0,0,0-.42.12,2.42,2.42,0,0,0-1.3,2.59,6.05,6.05,0,0,0,.94,2.24A14.31,14.31,0,0,0,149.33,20l1.76,1.83a5,5,0,0,0,2,1.46Z"/><path class="cls-1" d="M93.2,18.9l-1.9-1.06c-1.24-.66-3-1.76-5.38-2.9-1.18-.57-2.44-1.29-3.9-1.9s-3-1.41-4.7-2A47.91,47.91,0,0,0,65.58,7.9,24.06,24.06,0,0,0,58.71,8a14.12,14.12,0,0,0-6.55,3,6.14,6.14,0,0,0-1.94,3,7,7,0,0,0,0,3.7A5.69,5.69,0,0,0,51,19.43a4.87,4.87,0,0,0,.57.69l.37.36.34.25a6.6,6.6,0,0,0,3.45,1.17,6.82,6.82,0,0,0,3.56-.78,4.49,4.49,0,0,0,2.22-2.63,2.12,2.12,0,0,0-1.24-2.64c-.21-.12-.63-.33-.92-.47s-.58-.25-.92-.33a10.33,10.33,0,0,0-2-.37A20.84,20.84,0,0,0,48,16.22c-2.78,1.06-5.54,2.25-8.33,3.41C34.07,22,28.4,24.2,22.38,25.29a24.8,24.8,0,0,1-9-.35,20.23,20.23,0,0,1-8.06-3.75A13.9,13.9,0,0,1,.34,14.11,8.94,8.94,0,0,1,.2,9.81,9.31,9.31,0,0,1,2.09,6.06,14.2,14.2,0,0,1,5,3.31,15.72,15.72,0,0,1,8.4,1.41,13.79,13.79,0,0,1,12.1.47a11.86,11.86,0,0,1,3.72.24,9,9,0,0,1,.89.24l.22.07L17,1l.09,0,.1,0,.38.16a10.07,10.07,0,0,1,4.06,3.3,9,9,0,0,1,1.82,6,7.63,7.63,0,0,1-2.46,5,8,8,0,0,1-4.23,2.11,7.72,7.72,0,0,1-3.73-.4A8,8,0,0,1,10.61,16a7.84,7.84,0,0,1-1.18-1.23l-.33-.48a.37.37,0,0,1,.09-.52.36.36,0,0,1,.5.07l0,0,.33.41a7.24,7.24,0,0,0,1.13,1,7,7,0,0,0,5.4,1.24A6.62,6.62,0,0,0,20,14.6a6.35,6.35,0,0,0,1.86-4.1c.27-3.24-2.41-7.15-6.44-8A12.92,12.92,0,0,0,3.06,6.84a7.89,7.89,0,0,0-1.61,3.25,7.55,7.55,0,0,0,.15,3.68A12.24,12.24,0,0,0,6.17,20a18.31,18.31,0,0,0,7.52,3.26,33.11,33.11,0,0,0,8.52.43,34.24,34.24,0,0,0,4.34-.59,35.9,35.9,0,0,0,4.28-1.22c2.82-1,5.55-2.24,8.29-3.5s5.47-2.57,8.31-3.65A22,22,0,0,1,56.52,13a11.13,11.13,0,0,1,2.35.41,10.85,10.85,0,0,1,1.18.39c.38.16.63.27,1.06.49a4.56,4.56,0,0,1,2,1.85A4,4,0,0,1,63.35,19a5.9,5.9,0,0,1-1.16,2.32,6.79,6.79,0,0,1-1.95,1.6,7.93,7.93,0,0,1-4.7.89,7.74,7.74,0,0,1-4.27-1.84l-.45-.42-.34-.4a6.41,6.41,0,0,1-.67-1,7.55,7.55,0,0,1-.79-2.1,8.3,8.3,0,0,1,.2-4.29,7.26,7.26,0,0,1,2.28-3.5,16.23,16.23,0,0,1,7-3.3,25.92,25.92,0,0,1,7.21-.28A40.73,40.73,0,0,1,72.18,8l2.91.89c.93.34,1.82.71,2.68,1A75.4,75.4,0,0,1,86.43,14c2.37,1.22,4.08,2.39,5.3,3.11s1.85,1.14,1.85,1.14a.38.38,0,0,1,.12.52A.37.37,0,0,1,93.2,18.9Z"/><path class="cls-1" d="M168.59,17.84l1.85-1.14c1.22-.73,2.93-1.9,5.3-3.11a73.65,73.65,0,0,1,8.66-4.13c.86-.33,1.75-.7,2.68-1L190,7.53a40.73,40.73,0,0,1,6.47-1.27,25.92,25.92,0,0,1,7.21.28,16.23,16.23,0,0,1,7,3.3,7.26,7.26,0,0,1,2.28,3.5,8.3,8.3,0,0,1,.2,4.29,7.43,7.43,0,0,1-.79,2.1,6.49,6.49,0,0,1-.67,1l-.34.39-.45.42a7.67,7.67,0,0,1-4.27,1.84,7.93,7.93,0,0,1-4.7-.89,6.79,6.79,0,0,1-2-1.6,5.84,5.84,0,0,1-1.16-2.32,4,4,0,0,1,.28-2.78,4.56,4.56,0,0,1,2-1.85c.43-.22.68-.33,1.06-.49s.79-.3,1.18-.39a11.81,11.81,0,0,1,2.35-.41,22,22,0,0,1,9.09,1.73c2.84,1.09,5.58,2.39,8.31,3.66s5.47,2.52,8.29,3.49a35.9,35.9,0,0,0,4.28,1.22,32.52,32.52,0,0,0,4.34.59,33.11,33.11,0,0,0,8.52-.43A18.31,18.31,0,0,0,256,19.62a12.2,12.2,0,0,0,4.57-6.27,7.55,7.55,0,0,0,.15-3.68,7.89,7.89,0,0,0-1.61-3.25,12.92,12.92,0,0,0-12.34-4.36c-4,.87-6.71,4.78-6.44,8a6.32,6.32,0,0,0,1.86,4.1,6.62,6.62,0,0,0,3.41,1.89,7,7,0,0,0,5.4-1.24,6.8,6.8,0,0,0,1.13-1c.21-.27.33-.4.33-.4l0,0a.37.37,0,0,1,.52-.06.38.38,0,0,1,.07.51l-.33.48a7.84,7.84,0,0,1-1.18,1.23,8.2,8.2,0,0,1-2.4,1.37,7.84,7.84,0,0,1-3.73.39,8,8,0,0,1-4.23-2.1,7.68,7.68,0,0,1-2.46-5,9,9,0,0,1,1.82-6,10.07,10.07,0,0,1,4.06-3.3L245,.7l.1,0,.09,0,.05,0,.22-.07a9,9,0,0,1,.89-.24,12.16,12.16,0,0,1,3.72-.24,14.17,14.17,0,0,1,3.7.94,15.76,15.76,0,0,1,3.41,1.91,13.88,13.88,0,0,1,2.9,2.74A9.31,9.31,0,0,1,262,9.39a9,9,0,0,1-.14,4.31,13.88,13.88,0,0,1-4.93,7.07,20.05,20.05,0,0,1-8.06,3.76,25,25,0,0,1-9.05.34c-6-1.09-11.69-3.33-17.27-5.66-2.79-1.15-5.55-2.35-8.33-3.4a20.67,20.67,0,0,0-8.41-1.55,10.29,10.29,0,0,0-2,.37c-.34.08-.61.23-.92.33l-.92.47a2.13,2.13,0,0,0-1.24,2.65,4.5,4.5,0,0,0,2.22,2.62,6.8,6.8,0,0,0,7-.39l.35-.25.36-.36a4.87,4.87,0,0,0,.57-.69,5.69,5.69,0,0,0,.79-1.67,7,7,0,0,0,0-3.7,6.14,6.14,0,0,0-1.94-3,14.23,14.23,0,0,0-6.55-3,24.06,24.06,0,0,0-6.87-.13,48,48,0,0,0-11.74,3.14c-1.72.6-3.25,1.38-4.7,2s-2.72,1.33-3.9,1.9c-2.36,1.14-4.14,2.24-5.38,2.9L169,18.48a.37.37,0,0,1-.38-.64Z"/></g></g></svg>