<svg xmlns="http://www.w3.org/2000/svg" viewBox="0 0 262.17 28.54"><path d="M130.34 28.48a15.05 15.05 0 01-4.47-2.93 44.2 44.2 0 01-3.87-3.64 24.8 24.8 0 01-3.23-4.25 18.09 18.09 0 01-1.21-2.41 12.49 12.49 0 01-.81-2.58 10.47 10.47 0 01-.18-2.75 6.17 6.17 0 01.87-2.73 5 5 0 012.24-1.95 4.24 4.24 0 011.48-.33 5.27 5.27 0 011.5.16 8.76 8.76 0 012.57 1.19A16.89 16.89 0 01127.37 8a21.59 21.59 0 013.49 4h-.75a28.36 28.36 0 013.49-4 12.22 12.22 0 012.13-1.77 6.73 6.73 0 012.67-1 5.77 5.77 0 012.87.38 5.19 5.19 0 012.31 1.75 4.55 4.55 0 01.88 2.75 12.57 12.57 0 01-.37 2.72 23.93 23.93 0 01-1.89 5.09 21.62 21.62 0 01-3.07 4.43c-.29.34-.58.68-.88 1l-.23.25-.14.14-.13.11-.49.45c-.67.6-1.35 1.17-2 1.72s-1.43 1.08-2.18 1.58a10.74 10.74 0 01-1.2.66 2.26 2.26 0 01-1.48.21zm.18-.47a1.88 1.88 0 001.07-.25 8.9 8.9 0 001.1-.66 19.67 19.67 0 002-1.66c.64-.59 1.27-1.21 1.87-1.84l.45-.47.11-.12.05-.06.21-.26.82-1c1.07-1.37 2.06-2.79 3-4.24a16.71 16.71 0 001.23-2.28 14.5 14.5 0 00.8-2.44 10.1 10.1 0 00.3-2.53 3.55 3.55 0 00-.73-2.2 4.27 4.27 0 00-1.91-1.34 4.88 4.88 0 00-2.34-.21 8.18 8.18 0 00-2.32.71 7.77 7.77 0 00-2.12 1.37 18 18 0 00-3.25 4.06l-.33.55-.41-.54a26.17 26.17 0 00-3.47-3.81 15.71 15.71 0 00-2-1.55 6.33 6.33 0 00-2.22-.94 4.28 4.28 0 00-1.12 0 3.66 3.66 0 00-1.07.28 4.54 4.54 0 00-1.75 1.4 5.19 5.19 0 00-1 2.16 6.32 6.32 0 000 2.49 13.89 13.89 0 002 4.73 27.86 27.86 0 003.23 4.05c1.2 1.26 2.44 2.49 3.7 3.72a11.86 11.86 0 004.18 3zm-23.44-5.24a8.47 8.47 0 01-2.26-1.42 15.8 15.8 0 01-1.92-1.75 11.76 11.76 0 01-1.57-2.12 9.09 9.09 0 01-1-2.5 7.08 7.08 0 01-.13-1.4 3.18 3.18 0 01.39-1.48 2.49 2.49 0 011.21-1.1 2.45 2.45 0 01.82-.17 2.69 2.69 0 01.83.11 4.89 4.89 0 011.34.64 9.15 9.15 0 011.07.86 9.67 9.67 0 011.71 2.06h-.76a20.92 20.92 0 011.77-2 6.88 6.88 0 011-1A2.91 2.91 0 01111 11a3.12 3.12 0 011.53.23 2.82 2.82 0 011.23 1 2.48 2.48 0 01.45 1.48 7.18 7.18 0 01-.19 1.38c-.11.45-.25.87-.4 1.3s-.3.86-.49 1.27a6.45 6.45 0 01-.67 1.17 10.6 10.6 0 01-.84 1l-.45.48-.12.12-.08.07-.06.06-.26.21c-.34.28-.68.55-1 .81s-.72.5-1.11.74c-.19.11-.39.22-.61.32a1.25 1.25 0 01-.82.1zm.17-.47a1.85 1.85 0 00.93-.45 8.11 8.11 0 00.93-.84c.3-.29.59-.6.87-.92l.21-.24v-.05s0-.05 0 0l.09-.12.38-.51 1.45-2a8.58 8.58 0 00.63-1.05 6.24 6.24 0 00.39-1.15 4.55 4.55 0 00.12-1.18 1.45 1.45 0 00-.34-.92 1.9 1.9 0 00-.83-.55 2.24 2.24 0 00-1-.06 5.43 5.43 0 00-1 .29 3 3 0 00-1 .56 7.49 7.49 0 00-1.51 2l-.3.57-.45-.56a14.19 14.19 0 00-1.68-1.78 4.21 4.21 0 00-2-1.12 1.68 1.68 0 00-.86.13 2.6 2.6 0 00-.73.55 2.32 2.32 0 00-.58 2 6.05 6.05 0 00.94 2.24 16 16 0 001.62 1.86l1.76 1.83a5.08 5.08 0 002 1.46zm45.62 1.5a8.58 8.58 0 01-2.25-1.42 15.09 15.09 0 01-1.92-1.75 11.35 11.35 0 01-1.58-2.12 8.76 8.76 0 01-1-2.5 6.39 6.39 0 01-.14-1.4 3.18 3.18 0 01.39-1.48 2.53 2.53 0 011.22-1.13 2.24 2.24 0 01.83-.17 2.73 2.73 0 01.83.11 4.56 4.56 0 011.33.64 7.6 7.6 0 011.07.86 9.38 9.38 0 011.71 2.06h-.75a18.61 18.61 0 011.77-2 6.33 6.33 0 011-1 3 3 0 011.39-.53 3.16 3.16 0 011.54.23 2.85 2.85 0 011.22 1 2.42 2.42 0 01.46 1.48 7.16 7.16 0 01-.2 1.38c-.11.45-.25.87-.4 1.3s-.3.86-.49 1.27a7 7 0 01-.66 1.17c-.26.36-.55.71-.84 1l-.46.48-.11.11-.08.08-.07.06-.25.21q-.51.42-1.05.81c-.35.26-.72.5-1.1.74-.2.11-.4.22-.61.32a1.29 1.29 0 01-.83.1zm.18-.48a1.72 1.72 0 00.92-.44 8.2 8.2 0 00.94-.84c.29-.29.58-.6.86-.92l.21-.24.05-.06.09-.12.38-.51 1.45-2a7.49 7.49 0 00.63-1.05 5.57 5.57 0 00.39-1.15 4.18 4.18 0 00.13-1.18 1.46 1.46 0 00-.35-.92 1.84 1.84 0 00-.83-.55 2.24 2.24 0 00-1-.06 5.43 5.43 0 00-1 .29 3.06 3.06 0 00-1 .56 7.09 7.09 0 00-1.51 2l-.31.57-.45-.56a12.87 12.87 0 00-1.68-1.78 4.12 4.12 0 00-2-1.12 1.58 1.58 0 00-.44 0 1.72 1.72 0 00-.42.12 2.42 2.42 0 00-1.3 2.59 6.05 6.05 0 00.94 2.24 14.31 14.31 0 001.58 1.81l1.76 1.83a5 5 0 002 1.46zM93.2 18.9l-1.9-1.06c-1.24-.66-3-1.76-5.38-2.9-1.18-.57-2.44-1.29-3.9-1.9s-3-1.41-4.7-2A47.91 47.91 0 0065.58 7.9a24.06 24.06 0 00-6.87.1 14.12 14.12 0 00-6.55 3 6.14 6.14 0 00-1.94 3 7 7 0 000 3.7 5.69 5.69 0 00.78 1.73 4.87 4.87 0 00.57.69l.37.36.34.25a6.6 6.6 0 003.45 1.17 6.82 6.82 0 003.56-.78 4.49 4.49 0 002.22-2.63 2.12 2.12 0 00-1.24-2.64c-.21-.12-.63-.33-.92-.47s-.58-.25-.92-.33a10.33 10.33 0 00-2-.37A20.84 20.84 0 0048 16.22c-2.78 1.06-5.54 2.25-8.33 3.41-5.6 2.37-11.27 4.57-17.29 5.66a24.8 24.8 0 01-9-.35 20.23 20.23 0 01-8.06-3.75 13.9 13.9 0 01-4.98-7.08 8.94 8.94 0 01-.14-4.3 9.31 9.31 0 011.89-3.75A14.2 14.2 0 015 3.31a15.72 15.72 0 013.4-1.9 13.79 13.79 0 013.7-.94 11.86 11.86 0 013.72.24 9 9 0 01.89.24l.22.07L17 1h.19l.38.16a10.07 10.07 0 014.06 3.3 9 9 0 011.82 6 7.63 7.63 0 01-2.46 5 8 8 0 01-4.23 2.11 7.72 7.72 0 01-3.73-.4A8 8 0 0110.61 16a7.84 7.84 0 01-1.18-1.23l-.33-.48a.37.37 0 01.09-.52.36.36 0 01.5.07l.33.41a7.24 7.24 0 001.13 1 7 7 0 005.4 1.24A6.62 6.62 0 0020 14.6a6.35 6.35 0 001.86-4.1c.27-3.24-2.41-7.15-6.44-8A12.92 12.92 0 003.06 6.84a7.89 7.89 0 00-1.61 3.25 7.55 7.55 0 00.15 3.68A12.24 12.24 0 006.17 20a18.31 18.31 0 007.52 3.26 33.11 33.11 0 008.52.43 34.24 34.24 0 004.34-.59 35.9 35.9 0 004.28-1.22c2.82-1 5.55-2.24 8.29-3.5s5.47-2.57 8.31-3.65A22 22 0 0156.52 13a11.13 11.13 0 012.35.41 10.85 10.85 0 011.18.39c.38.16.63.27 1.06.49a4.56 4.56 0 012 1.85 4 4 0 01.24 2.86 5.9 5.9 0 01-1.16 2.32 6.79 6.79 0 01-1.95 1.6 7.93 7.93 0 01-4.7.89 7.74 7.74 0 01-4.27-1.84l-.45-.42-.34-.4a6.41 6.41 0 01-.67-1 7.55 7.55 0 01-.79-2.1 8.3 8.3 0 01.2-4.29 7.26 7.26 0 012.28-3.5 16.23 16.23 0 017-3.3 25.92 25.92 0 017.21-.28A40.73 40.73 0 0172.18 8l2.91.89c.93.34 1.82.71 2.68 1A75.4 75.4 0 0186.43 14c2.37 1.22 4.08 2.39 5.3 3.11s1.85 1.14 1.85 1.14a.38.38 0 01.12.52.37.37 0 01-.5.13zm75.39-1.06l1.85-1.14c1.22-.73 2.93-1.9 5.3-3.11a73.65 73.65 0 018.66-4.13c.86-.33 1.75-.7 2.68-1l2.92-.93a40.73 40.73 0 016.47-1.27 25.92 25.92 0 017.21.28 16.23 16.23 0 017 3.3 7.26 7.26 0 012.28 3.5 8.3 8.3 0 01.2 4.29 7.43 7.43 0 01-.79 2.1 6.49 6.49 0 01-.67 1l-.34.39-.45.42a7.67 7.67 0 01-4.27 1.84 7.93 7.93 0 01-4.7-.89 6.79 6.79 0 01-2-1.6 5.84 5.84 0 01-1.16-2.32 4 4 0 01.28-2.78 4.56 4.56 0 012-1.85c.43-.22.68-.33 1.06-.49s.79-.3 1.18-.39a11.81 11.81 0 012.35-.41 22 22 0 019.09 1.73c2.84 1.09 5.58 2.39 8.31 3.66s5.47 2.52 8.29 3.49a35.9 35.9 0 004.28 1.22 32.52 32.52 0 004.34.59 33.11 33.11 0 008.52-.43 18.31 18.31 0 007.52-3.29 12.2 12.2 0 004.57-6.27 7.55 7.55 0 00.15-3.68 7.89 7.89 0 00-1.61-3.25 12.92 12.92 0 00-12.34-4.36c-4 .87-6.71 4.78-6.44 8a6.32 6.32 0 001.86 4.1 6.62 6.62 0 003.41 1.89 7 7 0 005.4-1.24 6.8 6.8 0 001.13-1c.21-.27.33-.4.33-.4a.37.37 0 01.52-.06.38.38 0 01.07.51l-.33.48a7.84 7.84 0 01-1.18 1.23 8.2 8.2 0 01-2.4 1.37 7.84 7.84 0 01-3.73.39 8 8 0 01-4.23-2.1 7.68 7.68 0 01-2.46-5 9 9 0 011.82-6 10.07 10.07 0 014.06-3.3l.4-.23h.24l.22-.07a9 9 0 01.89-.24 12.16 12.16 0 013.72-.24 14.17 14.17 0 013.7.94A15.76 15.76 0 01257.18 3a13.88 13.88 0 012.9 2.74A9.31 9.31 0 01262 9.39a9 9 0 01-.14 4.31 13.88 13.88 0 01-4.93 7.07 20.05 20.05 0 01-8.06 3.76 25 25 0 01-9.05.34c-6-1.09-11.69-3.33-17.27-5.66-2.79-1.15-5.55-2.35-8.33-3.4a20.67 20.67 0 00-8.41-1.55 10.29 10.29 0 00-2 .37c-.34.08-.61.23-.92.33l-.92.47a2.13 2.13 0 00-1.24 2.65 4.5 4.5 0 002.22 2.62 6.8 6.8 0 007-.39l.35-.25.36-.36a4.87 4.87 0 00.57-.69 5.69 5.69 0 00.79-1.67 7 7 0 000-3.7 6.14 6.14 0 00-1.94-3 14.23 14.23 0 00-6.55-3 24.06 24.06 0 00-6.87-.13 48 48 0 00-11.74 3.14c-1.72.6-3.25 1.38-4.7 2s-2.72 1.33-3.9 1.9c-2.36 1.14-4.14 2.24-5.38 2.9L169 18.48a.37.37 0 01-.38-.64z" fill="#24273b" data-name="Layer 2"/></svg>