<svg xmlns="http://www.w3.org/2000/svg" viewBox="0 0 172.75 18.91"><defs><style>.cls-1{fill:#333;}</style></defs><g id="Layer_2" data-name="Layer 2"><g id="OBJECTS"><path class="cls-1" d="M83.81,14.66a39.67,39.67,0,0,1-7.3.13.25.25,0,0,0-.19,0c-.79-.06-1.57-.14-2.34-.23a.27.27,0,0,0-.08-.33c-1.08-.86-1.31-2.24-2-3.38-.37-.64-1.14-1.58-2-1.22s-.67,1.88-.37,2.63a3.73,3.73,0,0,0,.93,1.32,5.79,5.79,0,0,0,.89.6,99.48,99.48,0,0,1-10.22-2.39.29.29,0,0,0,0-.37c-2-2-1.69-4.61-4.36-6.14-3.36-1.92-7-3.51-10.41-5.24-.22-.11-.6.08-.48.37A19.28,19.28,0,0,0,54.1,9.77,92,92,0,0,0,41.49,7a51.25,51.25,0,0,0-16.81.58.1.1,0,0,0-.05,0A53.16,53.16,0,0,0,3.4,2.62a.33.33,0,0,0-.23.56,12.93,12.93,0,0,0,8.35,4c3.59.46,7.36.69,11,.86A53.35,53.35,0,0,0,7.88,14a.34.34,0,0,0-.37-.21c-.84.14-5.67,1.11-7.1,2.68l-.16.07a.34.34,0,0,0-.15.37A1.2,1.2,0,0,0,.42,18.3c.8.88,2.29.35,3.19,0a9.35,9.35,0,0,0,1.84-1.08,3.86,3.86,0,0,0,.81-.5.24.24,0,0,0,.08-.22,11.09,11.09,0,0,0,1.43-1.55.12.12,0,0,0,0-.08A52.09,52.09,0,0,1,29,7.57a7.1,7.1,0,0,0-.93.52c-.64.43-2,1.34-1.52,2.3.87,1.61,3.94-.79,5.57-2.2a7.66,7.66,0,0,1,1.61-.76.31.31,0,0,0,.2-.2,51.17,51.17,0,0,1,8.73.58c-6.3,1.78-12.72,4-16.47,9.76a.33.33,0,0,0,.28.49c3.48-.34,7.07-.71,10.28-2.21,3.5-1.63,5.58-4.59,7.54-7.78,2.87.52,5.72,1.24,8.55,2-2,.18-5,.78-4.16,2.42.42.82,1.73.56,2.45.4a10.79,10.79,0,0,0,4-2.17,154.55,154.55,0,0,0,15.74,4,27,27,0,0,0-12.3,2.91.33.33,0,0,0,.08.6,23.47,23.47,0,0,0,17.77-2.81,40.57,40.57,0,0,0,7.38-.14C84.22,15.27,84.22,14.62,83.81,14.66ZM28.62,8.53a4.8,4.8,0,0,1,.48-.3,7,7,0,0,1,1.14-.47C29.69,8,29.15,8.25,28.62,8.53ZM4.24,3.31a52.36,52.36,0,0,1,18.4,4c-2.83-.18-5.65-.48-8.49-.62C10.51,6.55,6.92,5.85,4.24,3.31Zm0,13.07-.19.05s0,0,0-.06l.62-.27c-.13.09-.27.17-.39.27Zm1.3-1.49c.46-.12.93-.22,1.41-.31-.48.14-1,.3-1.41.47A.43.43,0,0,0,5.56,14.89Zm-4.11,2.7,0,.06s0,0,0,.05l-.07,0a.37.37,0,0,0-.14.14,1.6,1.6,0,0,1,0-.22A1.05,1.05,0,0,0,1.45,17.59Zm4.3-1.43h0l0,0ZM27.82,10l.36-.16a.28.28,0,0,0,.15.2.76.76,0,0,1-.44.07ZM70.08,11.8a1.69,1.69,0,0,1-.15-.92v0a2.43,2.43,0,0,0,.1.55,2.6,2.6,0,0,0,.32.62.26.26,0,0,0,0,.3.18.18,0,0,0,.05.07h0l0,0a5.51,5.51,0,0,0,1.07,1.09,4.28,4.28,0,0,1-.38-.26A2.92,2.92,0,0,1,70.08,11.8Zm-11.64-.86A18.6,18.6,0,0,1,46.87,1c3,1.49,6,2.94,8.94,4.49a6.89,6.89,0,0,1,3.41,4,7.44,7.44,0,0,0,1.17,2.06l-1.79-.51A.34.34,0,0,0,58.44,10.94Zm-8.12.35-.32.08a2.34,2.34,0,0,1,.77-.31A3.17,3.17,0,0,0,50.32,11.29Zm2.88,0,.22-.05-.2.13A.24.24,0,0,0,53.2,11.25ZM36.74,15.13a19.16,19.16,0,0,1-4.25,1.43c-1.34.3-3.58,1.05-4.9.74-1.13-.27,1.29-2.12,1.86-2.64a20.88,20.88,0,0,1,4.15-2.87,46.66,46.66,0,0,1,9.77-3.51C41.63,11.05,39.76,13.63,36.74,15.13Zm23,2.7a26.18,26.18,0,0,1,14.84-2.17.28.28,0,0,0,.13,0A22.7,22.7,0,0,1,59.77,17.83Zm15.12-2.26a.38.38,0,0,0,.13-.25l.29,0Z"/><path class="cls-1" d="M172.65,16.93a.34.34,0,0,0-.15-.37l-.16-.07c-1.44-1.57-6.26-2.54-7.1-2.68a.34.34,0,0,0-.37.21,53.35,53.35,0,0,0-14.66-6c3.66-.17,7.43-.4,11-.86a12.93,12.93,0,0,0,8.35-4,.33.33,0,0,0-.23-.56,53.16,53.16,0,0,0-21.23,4.89l-.06,0A51.18,51.18,0,0,0,131.26,7a91.54,91.54,0,0,0-12.6,2.8A19.31,19.31,0,0,0,126.9.4c.12-.29-.26-.48-.48-.37-3.46,1.73-7,3.32-10.41,5.24-2.66,1.52-2.39,4.1-4.36,6.14a.29.29,0,0,0-.05.37,99.48,99.48,0,0,1-10.22,2.39,6.41,6.41,0,0,0,.77-.51,3.58,3.58,0,0,0,1-1.41c.3-.75.59-2.22-.37-2.63s-1.62.57-2,1.22c-.67,1.14-.9,2.52-2,3.38a.25.25,0,0,0-.07.33c-.78.09-1.56.17-2.35.23a.25.25,0,0,0-.19,0,39.67,39.67,0,0,1-7.3-.13c-.41,0-.41.61,0,.65a40.55,40.55,0,0,0,7.38.14,23.47,23.47,0,0,0,17.77,2.81.33.33,0,0,0,.08-.6,27.06,27.06,0,0,0-12.29-2.91,157.16,157.16,0,0,0,15.74-4,11.22,11.22,0,0,0,3.84,2.12c.74.19,2.21.51,2.64-.36.81-1.64-2.16-2.24-4.14-2.42,2.83-.77,5.66-1.49,8.53-2,2,3.19,4,6.15,7.54,7.78,3.21,1.5,6.79,1.87,10.28,2.21a.33.33,0,0,0,.28-.49c-3.75-5.74-10.17-8-16.48-9.76a51.35,51.35,0,0,1,8.74-.58.33.33,0,0,0,.2.2,7.66,7.66,0,0,1,1.61.76c1.63,1.41,4.68,3.8,5.57,2.2.49-.89-.76-1.76-1.35-2.18a7.7,7.7,0,0,0-1.15-.65A52.27,52.27,0,0,1,165,14.84a.12.12,0,0,0,0,.08,11.09,11.09,0,0,0,1.43,1.55.24.24,0,0,0,.08.22,4.07,4.07,0,0,0,.8.5,9.73,9.73,0,0,0,1.85,1.08c.9.38,2.39.92,3.19,0A1.2,1.2,0,0,0,172.65,16.93Zm-53.11-5.66-.07,0,.08,0Zm2.89,0c-.13-.07-.27-.15-.41-.21a3,3,0,0,1,.76.29Zm-8.9-1.78a6.69,6.69,0,0,1,3.41-4c3-1.55,6-3,8.94-4.49a18.6,18.6,0,0,1-11.57,9.92.4.4,0,0,0-.16.12l-1.79.51A7.86,7.86,0,0,0,113.53,9.51ZM100.1,14.38Zm2.61-2.72a3,3,0,0,1-.9,1.45,5.57,5.57,0,0,1-.67.48,5.84,5.84,0,0,0,1.16-1.17l0,0h0s0,0,.05-.07a.26.26,0,0,0,0-.3,2.6,2.6,0,0,0,.32-.62,2,2,0,0,0,.1-.69h0C102.93,10.91,102.77,11.47,102.71,11.66Zm-5,3.66a.42.42,0,0,0,.12.25l-.41-.22ZM113,17.83a22.69,22.69,0,0,1-15-2.18.25.25,0,0,0,.12,0A26.21,26.21,0,0,1,113,17.83Zm30-3.43a15.49,15.49,0,0,1,1.67,1.67c.58.67,1.21.95.48,1.23-1.08.4-3.36-.42-4.53-.66A19.84,19.84,0,0,1,136,15.13c-3-1.5-4.9-4.08-6.63-6.85a47.44,47.44,0,0,1,9.77,3.51A20.61,20.61,0,0,1,143,14.4Zm25.46,2c-.12-.1-.26-.18-.39-.27l.62.27s0,0,0,.06l-.19-.05Zm-1.28-1.32c-.47-.17-.93-.33-1.41-.47.47.09.95.19,1.41.31A.43.43,0,0,0,167.19,15.05ZM167,16.13l0,0h0Zm4.44,1.6-.07,0s0,0,0-.05l0-.06a.94.94,0,0,0,.24.06,1.6,1.6,0,0,1,0,.22A.37.37,0,0,0,171.4,17.73Zm-12.8-11c-2.84.14-5.66.44-8.49.62a52.31,52.31,0,0,1,18.39-4C165.83,5.85,162.24,6.55,158.6,6.73Zm-16.09,1c.27.09.53.19.8.31a8.24,8.24,0,0,1,1,.56Q143.43,8.15,142.51,7.76ZM144.42,10a.3.3,0,0,0,.15-.2L145,10l-.17.06A.76.76,0,0,1,144.42,10Z"/></g></g></svg>