<svg xmlns="http://www.w3.org/2000/svg" viewBox="0 0 172.75 18.91"><path d="M83.81 14.66a39.67 39.67 0 01-7.3.13.25.25 0 00-.19 0c-.79-.06-1.57-.14-2.34-.23a.27.27 0 00-.08-.33c-1.08-.86-1.31-2.24-2-3.38-.37-.64-1.14-1.58-2-1.22s-.67 1.88-.37 2.63a3.73 3.73 0 00.93 1.32 5.79 5.79 0 00.89.6 99.48 99.48 0 01-10.22-2.39.29.29 0 000-.37c-2-2-1.69-4.61-4.36-6.14-3.36-1.92-7-3.51-10.41-5.24-.22-.11-.6.08-.48.37a19.28 19.28 0 008.22 9.36A92 92 0 0041.49 7a51.25 51.25 0 00-16.81.58.1.1 0 00-.05 0A53.16 53.16 0 003.4 2.62a.33.33 0 00-.23.56 12.93 12.93 0 008.35 4c3.59.46 7.36.69 11 .86A53.35 53.35 0 007.88 14a.34.34 0 00-.37-.21c-.84.14-5.67 1.11-7.1 2.68l-.16.07a.34.34 0 00-.15.37 1.2 1.2 0 00.32 1.39c.8.88 2.29.35 3.19 0a9.35 9.35 0 001.84-1.08 3.86 3.86 0 00.81-.5.24.24 0 00.08-.22 11.09 11.09 0 001.43-1.55.12.12 0 000-.08A52.09 52.09 0 0129 7.57a7.1 7.1 0 00-.93.52c-.64.43-2 1.34-1.52 2.3.87 1.61 3.94-.79 5.57-2.2a7.66 7.66 0 011.61-.76.31.31 0 00.2-.2 51.17 51.17 0 018.73.58c-6.3 1.78-12.72 4-16.47 9.76a.33.33 0 00.28.49c3.48-.34 7.07-.71 10.28-2.21 3.5-1.63 5.58-4.59 7.54-7.78 2.87.52 5.72 1.24 8.55 2-2 .18-5 .78-4.16 2.42.42.82 1.73.56 2.45.4a10.79 10.79 0 004-2.17 154.55 154.55 0 0015.74 4 27 27 0 00-12.3 2.91.33.33 0 00.08.6 23.47 23.47 0 0017.77-2.81 40.57 40.57 0 007.38-.14c.42-.01.42-.66.01-.62zM28.62 8.53a4.8 4.8 0 01.48-.3 7 7 0 011.14-.47c-.55.24-1.09.49-1.62.77zM4.24 3.31a52.36 52.36 0 0118.4 4c-2.83-.18-5.65-.48-8.49-.62-3.64-.14-7.23-.84-9.91-3.38zm0 13.07l-.19.05v-.06l.62-.27c-.13.09-.27.17-.39.27zm1.3-1.49c.46-.12.93-.22 1.41-.31-.48.14-1 .3-1.41.47a.43.43 0 00.02-.16zm-4.11 2.7v.11h-.07a.37.37 0 00-.14.14 1.6 1.6 0 010-.22 1.05 1.05 0 00.23-.03zm4.3-1.43zM27.82 10l.36-.16a.28.28 0 00.15.2.76.76 0 01-.44.07zm42.26 1.8a1.69 1.69 0 01-.15-.92 2.43 2.43 0 00.1.55 2.6 2.6 0 00.32.62.26.26 0 000 .3.18.18 0 00.05.07 5.51 5.51 0 001.07 1.09 4.28 4.28 0 01-.38-.26 2.92 2.92 0 01-1.01-1.45zm-11.64-.86A18.6 18.6 0 0146.87 1c3 1.49 6 2.94 8.94 4.49a6.89 6.89 0 013.41 4 7.44 7.44 0 001.17 2.06l-1.79-.51a.34.34 0 00-.16-.1zm-8.12.35l-.32.08a2.34 2.34 0 01.77-.31 3.17 3.17 0 00-.45.23zm2.88 0l.22-.05-.2.13a.24.24 0 00-.02-.12zm-16.46 3.84a19.16 19.16 0 01-4.25 1.43c-1.34.3-3.58 1.05-4.9.74-1.13-.27 1.29-2.12 1.86-2.64a20.88 20.88 0 014.15-2.87 46.66 46.66 0 019.77-3.51c-1.74 2.77-3.61 5.35-6.63 6.85zm23 2.7a26.18 26.18 0 0114.84-2.17.28.28 0 00.13 0 22.7 22.7 0 01-14.94 2.17zm15.12-2.26a.38.38 0 00.13-.25h.29zm97.79 1.36a.34.34 0 00-.15-.37l-.16-.07c-1.44-1.57-6.26-2.54-7.1-2.68a.34.34 0 00-.37.21 53.35 53.35 0 00-14.66-6c3.66-.17 7.43-.4 11-.86a12.93 12.93 0 008.35-4 .33.33 0 00-.23-.56 53.16 53.16 0 00-21.23 4.89h-.06A51.18 51.18 0 00131.26 7a91.54 91.54 0 00-12.6 2.8A19.31 19.31 0 00126.9.4c.12-.29-.26-.48-.48-.37-3.46 1.73-7 3.32-10.41 5.24-2.66 1.52-2.39 4.1-4.36 6.14a.29.29 0 00-.05.37 99.48 99.48 0 01-10.22 2.39 6.41 6.41 0 00.77-.51 3.58 3.58 0 001-1.41c.3-.75.59-2.22-.37-2.63s-1.62.57-2 1.22c-.67 1.14-.9 2.52-2 3.38a.25.25 0 00-.07.33c-.78.09-1.56.17-2.35.23a.25.25 0 00-.19 0 39.67 39.67 0 01-7.3-.13c-.41 0-.41.61 0 .65a40.55 40.55 0 007.38.14 23.47 23.47 0 0017.77 2.81.33.33 0 00.08-.6 27.06 27.06 0 00-12.29-2.91 157.16 157.16 0 0015.74-4 11.22 11.22 0 003.84 2.12c.74.19 2.21.51 2.64-.36.81-1.64-2.16-2.24-4.14-2.42 2.83-.77 5.66-1.49 8.53-2 2 3.19 4 6.15 7.54 7.78 3.21 1.5 6.79 1.87 10.28 2.21a.33.33 0 00.28-.49c-3.75-5.74-10.17-8-16.48-9.76a51.35 51.35 0 018.74-.58.33.33 0 00.2.2 7.66 7.66 0 011.61.76c1.63 1.41 4.68 3.8 5.57 2.2.49-.89-.76-1.76-1.35-2.18a7.7 7.7 0 00-1.15-.65A52.27 52.27 0 01165 14.84a.12.12 0 000 .08 11.09 11.09 0 001.43 1.55.24.24 0 00.08.22 4.07 4.07 0 00.8.5 9.73 9.73 0 001.85 1.08c.9.38 2.39.92 3.19 0a1.2 1.2 0 00.3-1.34zm-53.11-5.66h-.07.08zm2.89 0c-.13-.07-.27-.15-.41-.21a3 3 0 01.76.29zm-8.9-1.78a6.69 6.69 0 013.41-4c3-1.55 6-3 8.94-4.49a18.6 18.6 0 01-11.57 9.92.4.4 0 00-.16.12l-1.79.51a7.86 7.86 0 001.17-2.04zm-13.43 4.89zm2.61-2.72a3 3 0 01-.9 1.45 5.57 5.57 0 01-.67.48 5.84 5.84 0 001.16-1.17l.05-.07a.26.26 0 000-.3 2.6 2.6 0 00.32-.62 2 2 0 00.1-.69c.16.17 0 .73-.06.92zm-5 3.66a.42.42 0 00.12.25l-.41-.22zM113 17.83a22.69 22.69 0 01-15-2.18.25.25 0 00.12 0A26.21 26.21 0 01113 17.83zm30-3.43a15.49 15.49 0 011.67 1.67c.58.67 1.21.95.48 1.23-1.08.4-3.36-.42-4.53-.66a19.84 19.84 0 01-4.62-1.51c-3-1.5-4.9-4.08-6.63-6.85a47.44 47.44 0 019.77 3.51A20.61 20.61 0 01143 14.4zm25.46 2c-.12-.1-.26-.18-.39-.27l.62.27v.06l-.19-.05zm-1.28-1.32c-.47-.17-.93-.33-1.41-.47.47.09.95.19 1.41.31a.43.43 0 00.01.13zm-.18 1.05zm4.44 1.6h-.07v-.11a.94.94 0 00.24.06 1.6 1.6 0 010 .22.37.37 0 00-.21-.17zm-12.8-11c-2.84.14-5.66.44-8.49.62a52.31 52.31 0 0118.39-4c-2.71 2.5-6.3 3.2-9.94 3.38zm-16.09 1c.27.09.53.19.8.31a8.24 8.24 0 011 .56q-.92-.45-1.84-.84zm1.87 2.27a.3.3 0 00.15-.2l.43.2-.17.06a.76.76 0 01-.41-.06z" fill="#333" data-name="Layer 2"/></svg>