<svg xmlns="http://www.w3.org/2000/svg" viewBox="0 0 80.27 34.3"><path d="M52.35 1.19A3 3 0 0050.43.5H3.52a3 3 0 00-1.92.69A3 3 0 00.5 3.52v27.26a3 3 0 001 2.22 3 3 0 002.05.8h46.88a3 3 0 002-.8 3 3 0 001-2.22V3.52a3 3 0 00-1.08-2.33zM27 21c-3.44-1.86-4.36-4-4.59-5.17a3.45 3.45 0 01-.09-.76 2.86 2.86 0 01.1-.77 2.52 2.52 0 012.43-1.91 2.14 2.14 0 011.27.4l.17.13A2.73 2.73 0 0127 14a2.22 2.22 0 012.15-1.69 2.53 2.53 0 012.44 1.91 2.86 2.86 0 01.1.77v.1a3.3 3.3 0 01-.08.69C31.35 17 30.43 19.13 27 21zm25.48 12l-20.9-17.18m-9.21 0L1.47 33m20.92-18.74L1.6 1.19m50.75 0L31.57 14.26M50.43.5H3.52M60 14.92l14.24-.74m-15.83 5.35h9.49m-4.74 5.54h16.61" fill="none" stroke="#000" stroke-linecap="round" stroke-miterlimit="10" data-name="Layer 2"/></svg>