<svg xmlns="http://www.w3.org/2000/svg" viewBox="0 0 80.27 34.3"><defs><style>.cls-1{fill:none;stroke:#000;stroke-linecap:round;stroke-miterlimit:10;}</style></defs><g id="Layer_2" data-name="Layer 2"><g id="OBJECTS"><path class="cls-1" d="M52.35,1.19A3,3,0,0,0,50.43.5H3.52a3,3,0,0,0-1.92.69A3,3,0,0,0,.5,3.52V30.78a3,3,0,0,0,1,2.22,3,3,0,0,0,2.05.8H50.43a3,3,0,0,0,2-.8,3,3,0,0,0,1-2.22V3.52A3,3,0,0,0,52.35,1.19ZM27,21h0c-3.44-1.86-4.36-4-4.59-5.17a3.45,3.45,0,0,1-.09-.76v0a2.86,2.86,0,0,1,.1-.77,2.52,2.52,0,0,1,2.43-1.91,2.14,2.14,0,0,1,1.27.4h0l.17.13A2.73,2.73,0,0,1,27,14a2.22,2.22,0,0,1,2.15-1.69,2.53,2.53,0,0,1,2.44,1.91,2.86,2.86,0,0,1,.1.77v.1a3.3,3.3,0,0,1-.08.69C31.35,17,30.43,19.13,27,21Z"/><line class="cls-1" x1="52.48" y1="33" x2="31.58" y2="15.82"/><line class="cls-1" x1="22.37" y1="15.82" x2="1.47" y2="33"/><path class="cls-1" d="M26.1,12.75h0"/><line class="cls-1" x1="22.39" y1="14.26" x2="1.6" y2="1.19"/><line class="cls-1" x1="52.35" y1="1.19" x2="31.57" y2="14.26"/><line class="cls-1" x1="50.43" y1="0.5" x2="3.52" y2="0.5"/><path class="cls-1" d="M60,14.92l14.24-.74"/><path class="cls-1" d="M58.41,19.53H67.9"/><path class="cls-1" d="M63.16,25.07H79.77"/></g></g></svg>