<svg xmlns="http://www.w3.org/2000/svg" viewBox="0 0 106.19 84.49"><defs><style>.cls-1{fill:#211915;}</style></defs><g id="Layer_2" data-name="Layer 2"><g id="objects"><path class="cls-1" d="M38.1,55.45c-5.45,2.7-11.43,4.87-17.59,4.87-4.83,0-10.19-1.09-13.69-4.67A19,19,0,0,1,2.41,47a17.7,17.7,0,0,1-.17-7.32C3.25,34,6.49,28.88,10,24.48A71.72,71.72,0,0,1,22.14,13.24,62.54,62.54,0,0,1,34.57,5.81c6-2.76,12.79-4.56,19.48-3.57a14.32,14.32,0,0,1,7.76,4.1,14.44,14.44,0,0,1,3.82,6.81c1.73,6,.51,12.52-2.18,18a48.9,48.9,0,0,1-7,10.06,50.38,50.38,0,0,1-6.91,6.79c-1,.8.42,2.21,1.41,1.41a49.61,49.61,0,0,0,6.54-6.34,57.13,57.13,0,0,0,6.91-9.4c2.75-5,4.67-11.35,4-17.09A23.33,23.33,0,0,0,65.75,8a17.47,17.47,0,0,0-7-6.36A18,18,0,0,0,50.1,0,34.78,34.78,0,0,0,39.73,1.68,62,62,0,0,0,23.23,10,81.44,81.44,0,0,0,10.29,21.12C6.22,25.51,2.41,31.12.8,36.93A21.77,21.77,0,0,0,3,53.8c2.86,5.05,8,7.52,13.56,8.26,5.93.79,11.67-.4,17.2-2.54,1.81-.69,3.58-1.48,5.32-2.34,1.15-.58.14-2.3-1-1.73Z"/><path class="cls-1" d="M33.87,42.82a47,47,0,0,1-13.93,5.41,30.93,30.93,0,0,1-6.7,1,12.93,12.93,0,0,1-4.47-.88,8.59,8.59,0,0,1-3.6-2.06,7.3,7.3,0,0,1-1.56-5.46c.22-4.69,2.45-9.13,5.09-12.92a61,61,0,0,1,11.57-12A61.5,61.5,0,0,1,34,7.12a59.13,59.13,0,0,1,7.53-2.68,27.16,27.16,0,0,1,6.42-1.27A18.41,18.41,0,0,1,55.3,4.49a5.45,5.45,0,0,1,3.32,3c2.62,5.74-.95,12-4.12,16.69A50.64,50.64,0,0,1,43.19,36.48c-1,.76,0,2.5,1,1.72A52,52,0,0,0,55,26.9c3.49-4.83,7.19-10.68,6.35-16.91a10.49,10.49,0,0,0-2.16-5.34c-1.28-1.52-3.51-2.23-5.36-2.74a19.22,19.22,0,0,0-7.91-.54,47.25,47.25,0,0,0-7.38,1.88,58.42,58.42,0,0,0-16.27,8.52A70.79,70.79,0,0,0,9.23,23.88C5.9,28,3,32.67,2,37.9,1.17,42,1.55,46.62,5.46,49c3.66,2.24,7.85,2.44,12,1.76a49,49,0,0,0,17.44-6.21c1.1-.67.09-2.4-1-1.73Z"/><path class="cls-1" d="M10.64,49.46a11.39,11.39,0,0,1,.41-4.79,36.4,36.4,0,0,1,2-4.45A47.87,47.87,0,0,1,22,27.8c7.12-6.94,16-12.35,25.75-14.4a20.51,20.51,0,0,1,7.27-.6,12.1,12.1,0,0,1,4.57,1.44c1.07.72,2.08-1,1-1.72a12.48,12.48,0,0,0-3.93-1.4A17.07,17.07,0,0,0,50.22,11a44.71,44.71,0,0,0-14.36,4.47C26,20.54,17.47,28.08,12.07,37.86a48,48,0,0,0-2.82,5.93,12.83,12.83,0,0,0-.61,5.67c.09,1.28,2.09,1.29,2,0Z"/><path class="cls-1" d="M56.76,21.66c-2.89-.23-6.23-.46-9,.44a21.76,21.76,0,0,0-7.43,4.28,22,22,0,0,0-7.15,16.06,21.61,21.61,0,0,0,1.33,6.39,42.49,42.49,0,0,0,4.34,9.74c3.11,5,7.59,9.27,12.1,13,5.7,4.68,12.18,8.75,19.34,10.7,6.2,1.68,13.14,3.14,19.52,1.56C95.21,82.47,100.9,79,103.61,74A20.17,20.17,0,0,0,105,57.27c-2.68-7.13-8.25-13.11-13.78-18.18A80.63,80.63,0,0,0,72.37,26.53c-1.69-.84-3.4-1.63-5.15-2.36-1.18-.49-1.7,1.44-.53,1.93C79.67,31.53,92.12,40.19,100,52a24.28,24.28,0,0,1,4.09,9.61,16.93,16.93,0,0,1-.71,7.51,16.23,16.23,0,0,1-4.15,7.26A23.09,23.09,0,0,1,92.07,81c-5,2.1-10.56,1.67-15.8.64a50.7,50.7,0,0,1-10.68-3.11,53.65,53.65,0,0,1-9.11-5.19A68.38,68.38,0,0,1,43.13,61.1a38.25,38.25,0,0,1-7.59-15.93c-1-4.27.28-9,2.38-12.81,2.48-4.47,7.54-8.3,12.75-8.74a37.53,37.53,0,0,1,6.09,0c1.28.1,1.27-1.9,0-2Z"/><path class="cls-1" d="M66.37,27.1C77,30.88,86.32,38.22,93.9,46.38c3.6,3.87,6.92,8.43,8.27,13.64.68,2.61.54,6.12-2,7.63-4,2.32-8,3.46-12.59,2.61a56.69,56.69,0,0,1-8.14-2.41,71.32,71.32,0,0,1-7.37-3,59.63,59.63,0,0,1-13.62-9.17,55.5,55.5,0,0,1-11.33-13.3,31.18,31.18,0,0,1-2.76-6.12c-.65-2-1.26-4.31-.44-6.41a8.48,8.48,0,0,1,4.43-4.35c2.36-1.11,5.28-.77,7.79-.55,1.28.11,1.28-1.89,0-2-2.47-.21-5.37-.51-7.76.38a11.62,11.62,0,0,0-4.8,3.29c-3.06,3.62-2,8.15-.43,12.18A44.66,44.66,0,0,0,52,52.16,66,66,0,0,0,67.09,64.44,76.12,76.12,0,0,0,83,71.12c5.31,1.65,10.5,2.07,15.62-.36,1.82-.87,3.85-1.81,4.88-3.64a9.67,9.67,0,0,0,.94-5.63c-.39-4.16-2.64-8.26-5-11.59A72.26,72.26,0,0,0,85.35,35.73,66.65,66.65,0,0,0,66.9,25.17c-1.21-.44-1.74,1.5-.53,1.93Z"/><path class="cls-1" d="M61.43,37.33C73,42,83.47,49.35,90,60.15c1.83,3,3.87,7,3.47,10.6-.14,1.28,1.86,1.27,2,0,.36-3.32-1.19-6.82-2.68-9.7a46.79,46.79,0,0,0-5.7-8.25A53.08,53.08,0,0,0,73.24,41,80.85,80.85,0,0,0,62,35.4c-1.2-.48-1.72,1.46-.53,1.93Z"/><path class="cls-1" d="M43.78,36c.59-.13,1.19-.22,1.8-.3l-.27,0c.56-.07,1.13-.13,1.69-.18a1.11,1.11,0,0,0,.71-.3,1,1,0,0,0-.71-1.7,28.32,28.32,0,0,0-3.76.52,1,1,0,0,0-.69,1.23,1,1,0,0,0,1.23.7Z"/></g></g></svg>